<svg width="543" height="620" viewBox="0 0 543 620" fill="none" xmlns="http://www.w3.org/2000/svg">
<g opacity="0.05">
<path d="M271.5 133C259.133 133 247.043 129.107 236.76 121.814C226.476 114.52 218.462 104.154 213.729 92.0257C208.996 79.8972 207.758 66.5514 210.17 53.6759C212.583 40.8004 218.539 28.9735 227.284 19.6908C236.029 10.4081 247.171 4.0865 259.301 1.52541C271.431 -1.03569 284.004 0.278759 295.43 5.30253C306.856 10.3263 316.622 18.8337 323.493 29.7491C330.364 40.6644 334.031 53.4973 334.031 66.625C334.031 84.2288 327.443 101.112 315.716 113.559C303.989 126.007 288.084 133 271.5 133ZM271.5 44.5C267.378 44.5 263.348 45.7976 259.92 48.2288C256.492 50.6599 253.821 54.1154 252.243 58.1582C250.665 62.201 250.253 66.6496 251.057 70.9414C251.861 75.2332 253.846 79.1755 256.761 82.2698C259.676 85.364 263.39 87.4712 267.434 88.3249C271.477 89.1786 275.668 88.7405 279.477 87.0659C283.285 85.3913 286.541 82.5555 288.831 78.917C291.121 75.2786 292.344 71.0009 292.344 66.625C292.344 60.7571 290.148 55.1295 286.239 50.9803C282.33 46.8311 277.028 44.5 271.5 44.5Z" fill="#73829F"/>
<path d="M334.125 531H208.875C203.339 531 198.029 532.563 194.114 535.345C190.199 538.126 188 541.899 188 545.833V560.667C188 576.403 196.797 591.494 212.457 602.622C228.116 613.749 249.354 620 271.5 620C293.646 620 314.884 613.749 330.543 602.622C346.203 591.494 355 576.403 355 560.667V545.833C355 541.899 352.801 538.126 348.886 535.345C344.971 532.563 339.661 531 334.125 531Z" fill="#73829F"/>
<path d="M531.003 489.434C509.354 478.033 491.145 460.426 478.436 438.607C465.727 416.788 459.026 391.629 459.092 365.976V287.875C459.092 235.064 439.328 184.416 404.148 147.072C368.967 109.729 321.252 88.75 271.499 88.75C221.746 88.75 174.031 109.729 138.85 147.072C103.669 184.416 83.9051 235.064 83.9051 287.875V365.976C83.9713 391.629 77.2707 416.788 64.5617 438.607C51.8528 460.426 33.6431 478.033 11.9941 489.434C7.84002 491.693 4.52036 495.366 2.56693 499.866C0.61349 504.365 0.139327 509.43 1.2204 514.25C2.30147 519.07 4.87522 523.365 8.52933 526.447C12.1834 529.529 16.7065 531.221 21.3738 531.25H521.624C526.291 531.221 530.814 529.529 534.468 526.447C538.122 523.365 540.696 519.07 541.777 514.25C542.858 509.43 542.384 504.365 540.431 499.866C538.477 495.366 535.158 491.693 531.003 489.434Z" fill="#73829F"/>
</g>
</svg>
