<svg width="334" height="315" viewBox="0 0 334 315" fill="none" xmlns="http://www.w3.org/2000/svg">
<g opacity="0.15">
<path d="M327.608 151.807C330.752 151.807 333.301 149.258 333.301 146.114C333.301 142.97 330.752 140.422 327.608 140.422C324.464 140.422 321.915 142.97 321.915 146.114C321.915 149.258 324.464 151.807 327.608 151.807Z" fill="#F9C577" fill-opacity="0.53"/>
<path d="M299.144 64.5181C307.532 64.5181 314.325 71.3114 314.325 79.6988C314.325 88.0861 307.532 94.8795 299.144 94.8795C290.757 94.8795 283.964 88.0861 283.964 79.6988C283.964 71.3114 290.757 64.5181 299.144 64.5181Z" fill="white"/>
<path d="M306.735 284.638V295.075C306.735 303.986 299.516 311.205 290.605 311.205H220.394C211.483 311.205 204.265 303.986 204.265 295.075V284.638H230.831H280.168H306.735Z" fill="white"/>
<path d="M306.735 208.735V284.638C306.655 284.638 210.43 284.638 204.265 284.638V208.735H306.735Z" fill="white"/>
<path d="M287.759 182.169L306.735 208.735H204.265L223.241 182.169H287.759Z" fill="white"/>
<path d="M299.144 151.428V159.777C299.144 163.762 295.918 166.988 291.934 166.988H287.759H223.241H219.066C215.081 166.988 211.855 163.762 211.855 159.777V151.428C211.855 147.443 215.081 144.217 219.066 144.217H291.934C295.918 144.217 299.144 147.443 299.144 151.428Z" fill="white"/>
<path d="M293.452 22.771C296.596 22.771 299.144 20.2223 299.144 17.0783C299.144 13.9342 296.596 11.3855 293.452 11.3855C290.308 11.3855 287.759 13.9342 287.759 17.0783C287.759 20.2223 290.308 22.771 293.452 22.771Z" fill="#F9C577" fill-opacity="0.53"/>
<path d="M287.759 166.988H223.241V182.169H287.759V166.988Z" fill="white"/>
<path d="M280.169 235.301H230.831V284.639H280.169V235.301Z" fill="white"/>
<path d="M258.414 38.7791C260.266 40.6312 261.192 43.0601 261.192 45.489C261.192 47.9104 260.266 50.3393 258.414 52.1989C254.71 55.903 248.699 55.903 244.995 52.1989L238.285 45.489L219.499 26.7029L212.789 19.993C210.937 18.1409 210.011 15.712 210.011 13.2831C210.011 10.8542 210.937 8.42529 212.789 6.57324C216.5 2.86914 222.504 2.86914 226.208 6.57324L258.414 38.7791Z" fill="white"/>
<path d="M219.496 26.7046L179.336 66.8643L198.122 85.6503L238.282 45.4907L219.496 26.7046Z" fill="white"/>
<path d="M107.017 214.329C100.96 220.379 91.1532 220.379 85.0961 214.329C76.2783 205.511 100.905 230.137 50.6586 179.892C44.6091 173.834 44.6091 164.028 50.6586 157.971L149.599 59.0379C155.648 52.9884 165.455 52.9884 171.512 59.0379C178.539 66.0643 191.451 78.9762 205.95 93.4753C211.999 99.5324 211.999 109.339 205.95 115.389C22.4483 298.89 183.53 137.811 107.017 214.329Z" fill="white"/>
<path d="M168.211 296.024C171.355 296.024 173.903 293.475 173.903 290.331C173.903 287.187 171.355 284.638 168.211 284.638C165.067 284.638 162.518 287.187 162.518 290.331C162.518 293.475 165.067 296.024 168.211 296.024Z" fill="#F9C577" fill-opacity="0.53"/>
<path d="M130.259 18.9759C133.403 18.9759 135.952 16.4271 135.952 13.2831C135.952 10.1391 133.403 7.59033 130.259 7.59033C127.115 7.59033 124.566 10.1391 124.566 13.2831C124.566 16.4271 127.115 18.9759 130.259 18.9759Z" fill="#F9C577" fill-opacity="0.53"/>
<path d="M73.3311 284.638C76.4751 284.638 79.0238 282.09 79.0238 278.946C79.0238 275.802 76.4751 273.253 73.3311 273.253C70.187 273.253 67.6383 275.802 67.6383 278.946C67.6383 282.09 70.187 284.638 73.3311 284.638Z" fill="#F9C577" fill-opacity="0.53"/>
<path d="M77.2703 206.503L66.5375 217.236L57.467 208.166L47.7513 198.45L58.4841 187.717L77.2703 206.503Z" fill="white"/>
<path d="M44.8672 98.6748C59.5393 98.6748 71.4334 86.7806 71.4334 72.1085C71.4334 57.4364 59.5393 45.5422 44.8672 45.5422C30.195 45.5422 18.3009 57.4364 18.3009 72.1085C18.3009 86.7806 30.195 98.6748 44.8672 98.6748Z" fill="white"/>
<path d="M23.9937 155.602C27.1377 155.602 29.6864 153.054 29.6864 149.91C29.6864 146.766 27.1377 144.217 23.9937 144.217C20.8496 144.217 18.3009 146.766 18.3009 149.91C18.3009 153.054 20.8496 155.602 23.9937 155.602Z" fill="#F9C577" fill-opacity="0.53"/>
<path d="M96.0551 222.649C91.1146 222.649 86.1748 220.77 82.4137 217.015L74.5858 209.186C73.1034 207.704 73.1034 205.301 74.5858 203.819C76.069 202.337 78.4713 202.337 79.953 203.819L87.7786 211.646C92.3419 216.202 99.7691 216.202 104.334 211.644L203.267 112.705C207.825 108.146 207.825 100.723 203.265 96.157L195.441 88.3329C193.959 86.8505 193.959 84.4474 195.441 82.9657C196.923 81.4841 199.326 81.4841 200.808 82.9657L208.634 90.7914C216.151 98.318 216.15 110.555 208.634 118.072L109.701 217.011C105.939 220.769 100.996 222.649 96.0551 222.649Z" fill="#F9C577" fill-opacity="0.53"/>
<path d="M58.4843 191.512C57.5127 191.512 56.5419 191.142 55.8003 190.4L47.9747 182.575C40.4602 175.05 40.4602 162.811 47.9731 155.289L146.916 56.3537C154.432 48.8385 166.669 48.837 174.194 56.3522L182.022 64.1794C183.504 65.6618 183.504 68.0649 182.022 69.5465C180.54 71.0282 178.137 71.0282 176.655 69.5465L168.829 61.7209C164.265 57.1629 156.842 57.1621 152.283 61.7209L53.3418 160.654C48.7845 165.217 48.7845 172.644 53.3441 177.209L61.1682 185.033C62.6506 186.515 62.6506 188.918 61.1682 190.4C60.4266 191.141 59.4558 191.512 58.4843 191.512Z" fill="#F9C577" fill-opacity="0.53"/>
<path d="M198.124 89.4448C197.153 89.4448 196.182 89.0744 195.44 88.3336L176.654 69.5474C175.172 68.065 175.172 65.6619 176.654 64.1803L216.815 24.0197C218.297 22.538 220.7 22.538 222.182 24.0197C223.664 25.5021 223.664 27.9052 222.182 29.3868L184.705 66.8635L198.124 80.2825L235.601 42.8058C237.083 41.3242 239.486 41.3242 240.968 42.8058C242.45 44.2882 242.45 46.6913 240.968 48.173L200.807 88.3336C200.067 89.0744 199.096 89.4448 198.124 89.4448Z" fill="#F9C577" fill-opacity="0.53"/>
<path d="M251.704 58.7722C248.155 58.7722 244.819 57.3907 242.311 54.8829L210.105 22.677C207.597 20.1683 206.216 16.8324 206.216 13.2831C206.216 9.73388 207.598 6.39792 210.105 3.89006C212.62 1.38069 215.956 0 219.502 0C223.049 0 226.384 1.38145 228.892 3.89006L261.098 36.096C263.607 38.6046 264.988 41.9405 264.988 45.4898C264.988 49.0284 263.608 52.3621 261.104 54.8776C258.59 57.3907 255.254 58.7722 251.704 58.7722ZM219.502 7.59036C217.98 7.59036 216.548 8.18317 215.47 9.25948C214.398 10.332 213.807 11.7613 213.807 13.2831C213.807 14.8042 214.399 16.2343 215.473 17.3091L247.679 49.515C248.753 50.5898 250.183 51.181 251.705 51.181C253.227 51.181 254.657 50.5898 255.731 49.515C256.804 48.4379 257.398 47.0056 257.398 45.489C257.398 43.9672 256.806 42.5371 255.731 41.4623L223.525 9.25644C222.45 8.18241 221.021 7.59036 219.502 7.59036Z" fill="#F9C577" fill-opacity="0.53"/>
<path d="M66.5376 221.031C65.5311 221.031 64.5656 220.632 63.8537 219.919L45.0675 201.133C44.3555 200.421 43.9563 199.457 43.9563 198.45C43.9563 197.444 44.3563 196.478 45.0675 195.767L55.8003 185.033C56.5123 184.321 57.4778 183.921 58.4842 183.921C59.4907 183.921 60.4562 184.321 61.1682 185.033L79.9543 203.82C81.4367 205.301 81.4367 207.704 79.9543 209.186L69.2216 219.919C68.5096 220.632 67.5441 221.031 66.5376 221.031ZM53.1186 198.45L66.5376 211.869L71.9032 206.503L58.4842 193.084L53.1186 198.45Z" fill="#F9C577" fill-opacity="0.53"/>
<path d="M3.79575 265.632C2.82418 265.632 1.85338 265.262 1.1118 264.52C-0.370599 263.039 -0.370599 260.635 1.1118 259.154L54.7832 205.482C56.2656 204 58.668 204 60.1504 205.482C61.6328 206.964 61.6328 209.367 60.1504 210.849L6.47894 264.52C5.73812 265.262 4.76732 265.632 3.79575 265.632Z" fill="#F9C577" fill-opacity="0.53"/>
<path d="M117.522 207.612C116.551 207.612 115.58 207.241 114.838 206.5L96.052 187.714C94.5696 186.232 94.5696 183.829 96.052 182.347C97.5344 180.865 99.9367 180.865 101.419 182.347L120.205 201.133C121.688 202.615 121.688 205.018 120.205 206.5C119.464 207.241 118.494 207.612 117.522 207.612Z" fill="#F9C577" fill-opacity="0.53"/>
<path d="M128.263 196.879C127.291 196.879 126.32 196.508 125.579 195.767L112.159 182.347C110.676 180.865 110.676 178.462 112.159 176.981C113.641 175.498 116.044 175.498 117.526 176.981L130.946 190.4C132.428 191.882 132.428 194.285 130.946 195.767C130.205 196.508 129.234 196.879 128.263 196.879Z" fill="#F9C577" fill-opacity="0.53"/>
<path d="M138.995 186.146C138.024 186.146 137.053 185.775 136.311 185.034L117.525 166.248C116.043 164.766 116.043 162.363 117.525 160.881C119.008 159.399 121.41 159.399 122.892 160.881L141.679 179.667C143.161 181.149 143.161 183.552 141.679 185.034C140.938 185.775 139.967 186.146 138.995 186.146Z" fill="#F9C577" fill-opacity="0.53"/>
<path d="M149.728 175.413C148.757 175.413 147.786 175.043 147.044 174.301L133.624 160.881C132.142 159.4 132.142 156.997 133.624 155.515C135.107 154.033 137.509 154.033 138.992 155.515L152.411 168.935C153.894 170.417 153.894 172.82 152.411 174.301C151.67 175.042 150.7 175.413 149.728 175.413Z" fill="#F9C577" fill-opacity="0.53"/>
<path d="M160.461 164.673C159.49 164.673 158.519 164.302 157.778 163.562L138.992 144.783C137.509 143.301 137.508 140.898 138.99 139.416C140.472 137.933 142.875 137.933 144.357 139.415L163.143 158.194C164.626 159.675 164.626 162.078 163.145 163.561C162.404 164.302 161.432 164.673 160.461 164.673Z" fill="#F9C577" fill-opacity="0.53"/>
<path d="M171.194 153.94C170.222 153.94 169.25 153.57 168.509 152.828L155.097 139.408C153.615 137.926 153.616 135.523 155.098 134.041C156.581 132.56 158.984 132.56 160.465 134.043L173.878 147.462C175.359 148.945 175.358 151.348 173.876 152.83C173.135 153.57 172.164 153.94 171.194 153.94Z" fill="#F9C577" fill-opacity="0.53"/>
<path d="M79.9575 159.306C78.9859 159.306 78.0151 158.936 77.2735 158.194C75.7911 156.713 75.7911 154.31 77.2735 152.827L136.311 93.7895C137.794 92.3078 140.196 92.3078 141.679 93.7895C143.161 95.2718 143.161 97.675 141.679 99.1566L82.6407 158.194C81.8999 158.936 80.9291 159.306 79.9575 159.306Z" fill="#F9C577" fill-opacity="0.53"/>
<path d="M290.605 315H220.394C209.408 315 200.47 306.062 200.47 295.075V208.735C200.47 206.638 202.169 204.94 204.265 204.94C206.361 204.94 208.06 206.638 208.06 208.735V295.075C208.06 301.876 213.593 307.41 220.394 307.41H290.605C297.407 307.41 302.94 301.876 302.94 295.075V208.735C302.94 206.638 304.639 204.94 306.735 204.94C308.83 204.94 310.53 206.638 310.53 208.735V295.075C310.53 306.062 301.592 315 290.605 315Z" fill="#F9C577" fill-opacity="0.53"/>
<path d="M306.735 212.53H204.265C202.843 212.53 201.541 211.735 200.89 210.472C200.24 209.208 200.351 207.686 201.176 206.529L220.152 179.963C221.37 178.257 223.741 177.86 225.447 179.081C227.152 180.298 227.547 182.67 226.329 184.375L211.64 204.94H299.36L284.67 184.374C283.452 182.669 283.847 180.298 285.553 179.08C287.259 177.86 289.63 178.257 290.847 179.962L309.823 206.528C310.649 207.685 310.76 209.207 310.11 210.471C309.459 211.735 308.156 212.53 306.735 212.53Z" fill="#F9C577" fill-opacity="0.53"/>
<path d="M287.759 185.964H223.241C221.145 185.964 219.446 184.265 219.446 182.169V166.988C219.446 164.892 221.145 163.193 223.241 163.193C225.336 163.193 227.036 164.892 227.036 166.988V178.374H283.964V166.988C283.964 164.892 285.663 163.193 287.759 163.193C289.855 163.193 291.554 164.892 291.554 166.988V182.169C291.554 184.265 289.855 185.964 287.759 185.964Z" fill="#F9C577" fill-opacity="0.53"/>
<path d="M291.934 170.783H219.066C212.998 170.783 208.06 165.846 208.06 159.777V151.428C208.06 145.359 212.998 140.422 219.066 140.422H291.934C298.002 140.422 302.94 145.359 302.94 151.428V159.777C302.94 165.846 298.002 170.783 291.934 170.783ZM219.066 148.012C217.183 148.012 215.65 149.544 215.65 151.428V159.777C215.65 161.66 217.183 163.193 219.066 163.193H291.934C293.817 163.193 295.349 161.66 295.349 159.777V151.428C295.349 149.544 293.817 148.012 291.934 148.012H219.066Z" fill="#F9C577" fill-opacity="0.53"/>
<path d="M280.168 288.434C278.073 288.434 276.373 286.735 276.373 284.639V239.096H234.626V284.639C234.626 286.735 232.927 288.434 230.831 288.434C228.735 288.434 227.036 286.735 227.036 284.639V235.301C227.036 233.205 228.735 231.506 230.831 231.506H280.168C282.264 231.506 283.964 233.205 283.964 235.301V284.639C283.964 286.735 282.264 288.434 280.168 288.434Z" fill="#F9C577" fill-opacity="0.53"/>
<path d="M306.735 288.434H204.265C202.169 288.434 200.47 286.735 200.47 284.639C200.47 282.542 202.169 280.844 204.265 280.844H306.735C308.83 280.844 310.53 282.542 310.53 284.639C310.53 286.735 308.83 288.434 306.735 288.434Z" fill="#F9C577" fill-opacity="0.53"/>
<path d="M299.144 98.6747C288.681 98.6747 280.168 90.1621 280.168 79.6988C280.168 69.2355 288.681 60.7229 299.144 60.7229C309.608 60.7229 318.12 69.2355 318.12 79.6988C318.12 90.1621 309.608 98.6747 299.144 98.6747ZM299.144 68.3133C292.866 68.3133 287.759 73.4208 287.759 79.6988C287.759 85.9768 292.866 91.0843 299.144 91.0843C305.422 91.0843 310.53 85.9768 310.53 79.6988C310.53 73.4208 305.422 68.3133 299.144 68.3133Z" fill="#F9C577" fill-opacity="0.53"/>
<path d="M44.8673 102.47C28.126 102.47 14.5059 88.8498 14.5059 72.1085C14.5059 55.3672 28.126 41.7471 44.8673 41.7471C61.6086 41.7471 75.2287 55.3672 75.2287 72.1085C75.2287 88.8498 61.6086 102.47 44.8673 102.47ZM44.8673 49.3374C32.3113 49.3374 22.0962 59.5525 22.0962 72.1085C22.0962 84.6645 32.3113 94.8796 44.8673 94.8796C57.4233 94.8796 67.6384 84.6645 67.6384 72.1085C67.6384 59.5525 57.4233 49.3374 44.8673 49.3374Z" fill="#F9C577" fill-opacity="0.53"/>
</g>
</svg>
