<svg width="1260" height="1261" viewBox="0 0 1260 1261" fill="none" xmlns="http://www.w3.org/2000/svg">
<path d="M279.723 399.111L233.656 368.676C267.134 318.043 309.466 274.743 359.407 240.02L390.949 285.395C346.818 316.107 309.328 354.427 279.723 399.111Z" fill="#FFF5E6" fill-opacity="0.75"/>
<path d="M211.245 605.237L156.047 602.056C159.644 541.186 174.585 482.53 200.455 427.609L250.534 451.265C227.569 499.546 214.427 551.423 211.245 605.237Z" fill="#FFF5E6" fill-opacity="0.75"/>
<path d="M205.297 842.767C178.044 788.399 161.719 730.158 156.739 669.427L211.937 664.862C216.364 718.538 230.751 770 254.822 818.004L205.297 842.767Z" fill="#FFF5E6" fill-opacity="0.75"/>
<path d="M368.537 1026.48C317.905 993.004 274.605 950.672 239.881 900.731L285.257 869.19C315.968 913.32 354.288 950.81 398.972 980.415L368.537 1026.48Z" fill="#FFF5E6" fill-opacity="0.75"/>
<path d="M601.779 1104.09C540.909 1100.49 482.253 1085.55 427.332 1059.68L450.988 1009.6C499.407 1032.57 551.285 1045.71 605.099 1048.89L601.779 1104.09Z" fill="#FFF5E6" fill-opacity="0.75"/>
<path d="M669.288 1103.4L664.723 1048.2C718.399 1043.77 769.861 1029.39 817.865 1005.32L842.628 1054.84C788.261 1082.09 730.02 1098.42 669.288 1103.4Z" fill="#FFF5E6" fill-opacity="0.75"/>
<path d="M900.593 1020.26L869.051 974.881C913.182 944.17 950.672 905.85 980.277 861.166L1026.48 891.739C992.865 942.233 950.533 985.534 900.593 1020.26Z" fill="#FFF5E6" fill-opacity="0.75"/>
<path d="M1059.55 832.806L1009.47 809.15C1032.43 760.731 1045.57 708.854 1048.75 655.178L1103.95 658.36C1100.36 719.229 1085.41 777.886 1059.55 832.806Z" fill="#FFF5E6" fill-opacity="0.75"/>
<path d="M1048.06 595.415C1043.64 541.739 1029.25 490.277 1005.18 442.273L1054.7 417.51C1081.96 471.877 1098.28 530.119 1103.26 590.85L1048.06 595.415Z" fill="#FFF5E6" fill-opacity="0.75"/>
<path d="M974.743 391.087C944.032 346.956 905.712 309.466 861.028 279.862L891.601 233.656C942.233 267.134 985.534 309.466 1020.26 359.407L974.743 391.087Z" fill="#FFF5E6" fill-opacity="0.75"/>
<path d="M809.012 250.672C760.593 227.707 708.716 214.565 654.901 211.383L658.083 156.186C718.953 159.782 777.609 174.723 832.53 200.593L809.012 250.672Z" fill="#FFF5E6" fill-opacity="0.75"/>
<path d="M442.134 254.96L417.372 205.435C471.739 178.182 529.98 161.858 590.712 156.877L595.277 212.075C541.601 216.502 490.138 230.889 442.134 254.96Z" fill="#FFF5E6" fill-opacity="0.75"/>
<path d="M684.229 244.585H628.893V158.538C628.893 128.794 642.865 100.711 666.383 83.1423C670.81 79.8221 672.885 76.6403 672.885 74.9802C672.885 70 656.284 55.336 624.743 55.336C593.201 55.336 576.601 69.8616 576.601 74.9802C576.601 76.502 578.676 79.8221 583.103 83.1423C606.62 100.573 620.593 128.794 620.593 158.538V244.585H565.257V158.538C565.257 146.225 559.585 134.605 550.039 127.549C531.502 113.715 521.265 95.0395 521.265 74.9802C521.265 32.9249 566.64 0 624.743 0C682.707 0 728.221 32.9249 728.221 74.9802C728.221 95.0395 717.984 113.715 699.446 127.549C689.901 134.605 684.229 146.225 684.229 158.538V244.585Z" fill="#FFF5E6" fill-opacity="0.75"/>
<path d="M635.257 1260.14C577.292 1260.14 531.779 1227.21 531.779 1185.16C531.779 1165.1 542.016 1146.42 560.553 1132.59C570.099 1125.53 575.771 1113.91 575.771 1101.6V1015.55H631.107V1101.6C631.107 1131.34 617.134 1159.43 593.617 1177C589.19 1180.32 587.115 1183.5 587.115 1185.16C587.115 1190.14 603.715 1204.8 635.257 1204.8C666.798 1204.8 683.399 1190.28 683.399 1185.16C683.399 1183.64 681.324 1180.32 676.897 1177C653.379 1159.57 639.407 1131.34 639.407 1101.6V1015.55H694.743V1101.6C694.743 1113.91 700.415 1125.53 709.96 1132.59C728.498 1146.42 738.735 1165.1 738.735 1185.16C738.597 1227.21 693.221 1260.14 635.257 1260.14Z" fill="#FFF5E6" fill-opacity="0.75"/>
<path d="M74.9802 738.735C32.9249 738.735 0 693.359 0 635.257C0 577.292 32.9249 531.778 74.9802 531.778C95.0395 531.778 113.715 542.016 127.549 560.553C134.605 570.099 146.225 575.77 158.538 575.77H244.585V631.106H158.538C128.794 631.106 100.711 617.134 83.1423 593.616C79.8221 589.189 76.6403 587.114 74.9802 587.114C70 587.114 55.336 603.715 55.336 635.257C55.336 666.798 69.8617 683.399 74.9802 683.399C76.502 683.399 79.8221 681.324 83.1423 676.897C100.573 653.379 128.794 639.407 158.538 639.407H244.585V694.743H158.538C146.225 694.743 134.605 700.415 127.549 709.96C113.715 728.498 95.0395 738.735 74.9802 738.735Z" fill="#FFF5E6" fill-opacity="0.75"/>
<path d="M1185.02 728.359C1164.96 728.359 1146.28 718.122 1132.45 699.585C1125.4 690.039 1113.77 684.367 1101.46 684.367H1015.42V629.031H1101.46C1131.21 629.031 1159.29 643.004 1176.86 666.522C1180.18 670.948 1183.36 673.024 1185.02 673.024C1190 673.024 1204.66 656.423 1204.66 624.881C1204.66 593.34 1190.14 576.739 1185.02 576.739C1183.5 576.739 1180.18 578.814 1176.86 583.241C1159.43 606.759 1131.21 620.731 1101.46 620.731H1015.42V565.395H1101.46C1113.77 565.395 1125.4 559.723 1132.45 550.178C1146.28 531.64 1164.96 521.403 1185.02 521.403C1227.08 521.403 1260 566.778 1260 624.881C1260 682.984 1227.08 728.359 1185.02 728.359Z" fill="#FFF5E6" fill-opacity="0.75"/>
<path d="M381.265 328.557L338.241 254.131C332.154 243.478 321.364 236.285 309.605 234.901C286.64 232.273 268.379 221.206 258.419 203.775C237.391 167.391 260.356 116.206 310.573 87.1543C332.569 74.427 356.64 67.925 378.636 68.6167C405.059 69.5851 426.502 81.0673 437.569 100.297C447.53 117.589 448.083 138.893 438.952 160.059C434.249 170.988 435.079 183.854 441.304 194.506L484.328 268.933L436.324 296.739L393.3 222.312C378.498 196.581 376.561 165.178 388.043 138.34C390.257 133.221 390.395 129.486 389.565 128.103C388.735 126.581 384.585 124.368 376.7 124.091C365.079 123.676 351.107 127.688 338.103 135.158C310.711 150.929 303.656 171.818 306.285 176.107C307.115 177.49 310.435 179.289 315.968 179.842C345.02 183.3 371.304 200.593 386.107 226.324L429.13 300.751L381.265 328.557Z" fill="#FFF5E6" fill-opacity="0.75"/>
<path d="M884.822 1191.66C883.715 1191.66 882.609 1191.66 881.364 1191.66C854.941 1190.69 833.498 1179.21 822.431 1159.98C812.47 1142.69 811.917 1121.38 821.047 1100.22C825.751 1089.29 824.921 1076.42 818.696 1065.77L775.81 991.206L823.676 963.538L866.7 1037.96C881.502 1063.7 883.439 1095.1 871.957 1121.94C869.743 1127.06 869.605 1130.79 870.435 1132.17C871.265 1133.7 875.415 1135.91 883.3 1136.19C894.921 1136.6 908.893 1132.59 921.897 1125.12C949.289 1109.35 956.344 1088.46 953.715 1084.17C952.885 1082.79 949.565 1080.99 944.032 1080.43C914.98 1076.98 888.696 1059.68 873.893 1033.95L830.87 959.387L878.735 931.719L921.759 1006.15C927.984 1016.8 938.636 1023.99 950.395 1025.38C973.36 1028 991.62 1039.07 1001.58 1056.5C1022.61 1092.89 999.644 1144.07 949.427 1173.12C928.676 1185.16 905.85 1191.66 884.822 1191.66Z" fill="#FFF5E6" fill-opacity="0.75"/>
<path d="M174.032 1009.47C142.905 1009.47 108.735 987.194 87.0158 949.565C74.2885 927.569 67.7865 903.498 68.4782 881.502C69.4466 855.079 80.9288 833.636 100.158 822.569C117.451 812.609 138.755 812.055 159.921 821.186C170.85 825.889 183.715 825.059 194.368 818.834L268.794 775.81L296.462 823.676L222.036 866.7C196.304 881.502 164.901 883.439 138.063 871.957C132.945 869.743 129.209 869.605 127.826 870.435C126.304 871.265 124.091 875.415 123.814 883.3C123.399 894.921 127.411 908.893 134.881 921.897C150.652 949.289 171.541 956.344 175.83 953.715C177.213 952.885 179.012 949.565 179.565 944.032C183.024 914.98 200.316 888.696 226.047 873.893L300.474 830.87L328.142 878.735L253.715 921.759C243.063 927.984 235.87 938.636 234.486 950.395C231.858 973.36 220.79 991.621 203.36 1001.58C194.506 1006.98 184.407 1009.47 174.032 1009.47Z" fill="#FFF5E6" fill-opacity="0.75"/>
<path d="M991.067 484.328L963.399 436.463L1037.83 393.439C1063.56 378.637 1094.96 376.7 1121.8 388.182C1126.92 390.395 1130.65 390.534 1132.04 389.704C1133.56 388.874 1135.77 384.724 1136.05 376.838C1136.46 365.218 1132.45 351.245 1124.98 338.241C1109.21 310.85 1088.32 303.795 1084.03 306.423C1082.65 307.253 1080.85 310.573 1080.3 316.107C1076.84 345.158 1059.55 371.443 1033.81 386.245L959.249 429.269L931.581 381.403L1006.01 338.38C1016.66 332.293 1023.85 321.502 1025.24 309.743C1027.87 286.779 1038.93 268.518 1056.36 258.558C1092.75 237.53 1143.93 260.494 1172.98 310.712C1185.71 332.708 1192.21 356.779 1191.52 378.775C1190.55 405.198 1179.07 426.641 1159.84 437.708C1142.55 447.668 1121.24 448.222 1100.08 439.091C1089.15 434.388 1076.28 435.218 1065.63 441.443L991.067 484.328Z" fill="#FFF5E6" fill-opacity="0.75"/>
<path d="M263.814 493.32L189.249 450.296C178.597 444.209 165.731 443.241 154.802 447.945C133.498 457.075 112.332 456.66 94.9012 446.561C75.672 435.494 64.1898 414.051 63.2214 387.628C62.5297 365.632 69.0316 341.423 81.7589 319.565C110.81 269.348 161.996 246.383 198.379 267.411C215.81 277.371 226.739 295.632 229.506 318.597C230.889 330.356 238.083 341.146 248.735 347.233L323.162 390.257L295.494 438.122L221.067 395.099C195.336 380.296 177.905 354.012 174.585 324.96C173.893 319.427 172.233 315.968 170.85 315.277C166.561 312.786 145.672 319.842 129.901 347.095C122.431 359.96 118.419 374.071 118.834 385.692C119.111 393.577 121.324 397.727 122.846 398.557C124.229 399.387 127.964 399.249 133.221 397.035C160.059 385.415 191.462 387.352 217.194 402.292L291.621 445.316L263.814 493.32Z" fill="#FFF5E6" fill-opacity="0.75"/>
<path d="M1091.23 1000.47C1080.85 1000.47 1070.75 997.984 1061.62 992.727C1044.19 982.766 1033.26 964.506 1030.49 941.541C1029.11 929.782 1021.92 918.992 1011.26 912.905L936.838 869.881L964.506 822.016L1038.93 865.039C1064.66 879.842 1082.09 906.126 1085.41 935.178C1086.11 940.711 1087.77 944.17 1089.15 944.861C1093.44 947.352 1114.33 940.296 1130.1 913.043C1137.57 900.178 1141.58 886.067 1141.17 874.446C1140.89 866.561 1138.68 862.411 1137.15 861.581C1135.77 860.751 1132.04 860.889 1126.78 863.103C1099.94 874.723 1068.54 872.786 1042.81 857.846L968.379 814.822L996.047 766.956L1070.47 809.98C1081.13 816.067 1093.99 817.035 1104.92 812.332C1126.22 803.201 1147.39 803.616 1164.82 813.715C1184.05 824.782 1195.53 846.225 1196.5 872.648C1197.19 894.644 1190.69 918.853 1177.96 940.711C1156.38 978.201 1122.21 1000.47 1091.23 1000.47Z" fill="#FFF5E6" fill-opacity="0.75"/>
<path d="M384.17 1196.92C363.142 1196.92 340.316 1190.42 319.427 1178.38C269.209 1149.33 246.245 1098.14 267.273 1061.76C277.233 1044.47 295.494 1033.4 318.458 1030.63C330.217 1029.25 341.008 1022.06 347.095 1011.4L390.119 936.976L437.984 964.644L394.96 1039.07C380.158 1064.8 353.873 1082.23 324.822 1085.55C319.288 1086.25 315.83 1087.91 315.138 1089.29C312.648 1093.58 319.703 1114.47 346.956 1130.24C359.822 1137.71 373.933 1141.72 385.553 1141.3C393.439 1141.03 397.589 1138.81 398.419 1137.29C399.249 1135.91 399.111 1132.17 396.897 1126.92C385.277 1100.08 387.213 1068.68 402.154 1042.94L445.178 968.518L493.043 996.186L450.158 1070.89C444.071 1081.54 443.103 1094.41 447.806 1105.34C456.937 1126.64 456.522 1147.81 446.423 1165.24C435.356 1184.47 413.913 1195.95 387.49 1196.92C386.522 1196.78 385.415 1196.92 384.17 1196.92Z" fill="#FFF5E6" fill-opacity="0.75"/>
<path d="M869.743 323.3L821.878 295.632L864.901 221.205C879.704 195.474 905.988 178.043 935.04 174.723C940.573 174.031 944.032 172.371 944.723 170.988C947.214 166.699 940.158 145.81 912.905 130.039C900.04 122.569 885.929 118.557 874.308 118.972C866.423 119.249 862.273 121.462 861.443 122.984C860.613 124.367 860.751 128.103 862.965 133.359C874.585 160.197 872.648 191.601 857.708 217.332L814.684 291.759L766.818 264.091L809.842 189.664C815.929 179.012 816.897 166.146 812.194 155.217C803.063 133.913 803.478 112.747 813.577 95.316C824.644 76.0867 846.087 64.6045 872.51 63.6361C894.506 62.8061 918.716 69.4464 940.573 82.1737C990.791 111.225 1013.76 162.411 992.727 198.794C982.767 216.225 964.506 227.154 941.542 229.921C929.783 231.304 918.992 238.498 912.905 249.15L869.743 323.3Z" fill="#FFF5E6" fill-opacity="0.75"/>
<path d="M593.201 496.917C544.091 496.917 504.111 456.937 504.111 407.826C504.111 358.715 544.091 318.735 593.201 318.735C642.312 318.735 682.292 358.715 682.292 407.826C682.292 456.937 642.312 496.917 593.201 496.917ZM593.201 374.071C574.526 374.071 559.447 389.288 559.447 407.826C559.447 426.364 574.664 441.581 593.201 441.581C611.877 441.581 626.956 426.364 626.956 407.826C626.956 389.288 611.877 374.071 593.201 374.071Z" fill="#FFF5E6" fill-opacity="0.75"/>
<path d="M642.727 730.296C593.617 730.296 553.636 690.316 553.636 641.206C553.636 592.095 593.617 552.115 642.727 552.115C691.838 552.115 731.818 592.095 731.818 641.206C731.818 690.316 691.838 730.296 642.727 730.296ZM642.727 607.312C624.051 607.312 608.972 622.53 608.972 641.067C608.972 659.743 624.19 674.822 642.727 674.822C661.403 674.822 676.482 659.605 676.482 641.067C676.482 622.53 661.403 607.312 642.727 607.312Z" fill="#FFF5E6" fill-opacity="0.75"/>
<path d="M841.66 618.379C792.55 618.379 752.569 578.399 752.569 529.289C752.569 480.178 792.55 440.198 841.66 440.198C890.771 440.198 930.751 480.178 930.751 529.289C930.751 578.399 890.771 618.379 841.66 618.379ZM841.66 495.395C822.984 495.395 807.905 510.613 807.905 529.15C807.905 547.688 823.123 562.905 841.66 562.905C860.336 562.905 875.415 547.688 875.415 529.15C875.415 510.613 860.198 495.395 841.66 495.395Z" fill="#FFF5E6" fill-opacity="0.75"/>
<path d="M405.751 693.913C356.64 693.913 316.66 653.933 316.66 604.822C316.66 555.711 356.64 515.731 405.751 515.731C454.862 515.731 494.842 555.711 494.842 604.822C494.842 653.933 454.862 693.913 405.751 693.913ZM405.751 571.067C387.075 571.067 371.996 586.285 371.996 604.822C371.996 623.36 387.214 638.577 405.751 638.577C424.427 638.577 439.506 623.36 439.506 604.822C439.506 586.285 424.427 571.067 405.751 571.067Z" fill="#FFF5E6" fill-opacity="0.75"/>
<path d="M542.016 930.059C492.905 930.059 452.925 890.079 452.925 840.968C452.925 791.858 492.905 751.877 542.016 751.877C591.126 751.877 631.107 791.858 631.107 840.968C631.107 890.079 591.126 930.059 542.016 930.059ZM542.016 807.075C523.34 807.075 508.261 822.292 508.261 840.83C508.261 859.506 523.478 874.585 542.016 874.585C560.553 874.585 575.771 859.368 575.771 840.83C575.771 822.154 560.692 807.075 542.016 807.075Z" fill="#FFF5E6" fill-opacity="0.75"/>
<path d="M823.814 857.431C774.704 857.431 734.723 817.45 734.723 768.34C734.723 719.229 774.704 679.249 823.814 679.249C872.925 679.249 912.905 719.229 912.905 768.34C912.905 817.45 872.925 857.431 823.814 857.431ZM823.814 734.446C805.138 734.446 790.059 749.664 790.059 768.201C790.059 786.739 805.277 801.956 823.814 801.956C842.49 801.956 857.569 786.739 857.569 768.201C857.569 749.664 842.352 734.446 823.814 734.446Z" fill="#FFF5E6" fill-opacity="0.75"/>
</svg>
