<svg width="414" height="42" viewBox="0 0 414 42" fill="none" xmlns="http://www.w3.org/2000/svg">
<path d="M0 40L0 0L414 0V40L0 40Z" fill="#73829F"/>
<path d="M30.3101 17.9H36.8441V41H30.3101V17.9Z" fill="#FFFAF3"/>
<path d="M63.4707 17.9V41H58.0917L47.8947 28.691V41H41.4927V17.9H46.8717L57.0687 30.209V17.9H63.4707Z" fill="#FFFAF3"/>
<path d="M79.7286 41.462C77.2866 41.462 75.0866 40.945 73.1286 39.911C71.1926 38.877 69.6636 37.447 68.5416 35.621C67.4416 33.795 66.8916 31.738 66.8916 29.45C66.8916 27.162 67.4416 25.105 68.5416 23.279C69.6636 21.453 71.1926 20.023 73.1286 18.989C75.0866 17.955 77.2866 17.438 79.7286 17.438C82.1706 17.438 84.3596 17.955 86.2956 18.989C88.2536 20.023 89.7826 21.453 90.8826 23.279C92.0046 25.105 92.5656 27.162 92.5656 29.45C92.5656 31.738 92.0046 33.795 90.8826 35.621C89.7826 37.447 88.2536 38.877 86.2956 39.911C84.3596 40.945 82.1706 41.462 79.7286 41.462ZM79.7286 36.05C80.8946 36.05 81.9506 35.775 82.8966 35.225C83.8426 34.675 84.5906 33.905 85.1406 32.915C85.6906 31.903 85.9656 30.748 85.9656 29.45C85.9656 28.152 85.6906 27.008 85.1406 26.018C84.5906 25.006 83.8426 24.225 82.8966 23.675C81.9506 23.125 80.8946 22.85 79.7286 22.85C78.5626 22.85 77.5066 23.125 76.5606 23.675C75.6146 24.225 74.8666 25.006 74.3166 26.018C73.7666 27.008 73.4916 28.152 73.4916 29.45C73.4916 30.748 73.7666 31.903 74.3166 32.915C74.8666 33.905 75.6146 34.675 76.5606 35.225C77.5066 35.775 78.5626 36.05 79.7286 36.05Z" fill="#FFFAF3"/>
<path d="M107.505 41.462C105.085 41.462 102.907 40.956 100.971 39.944C99.0568 38.91 97.5498 37.48 96.4498 35.654C95.3498 33.828 94.7998 31.76 94.7998 29.45C94.7998 27.14 95.3498 25.072 96.4498 23.246C97.5498 21.42 99.0568 20.001 100.971 18.989C102.907 17.955 105.085 17.438 107.505 17.438C109.617 17.438 111.52 17.812 113.214 18.56C114.908 19.308 116.316 20.386 117.438 21.794L113.28 25.556C111.784 23.752 109.969 22.85 107.835 22.85C106.581 22.85 105.459 23.125 104.469 23.675C103.501 24.225 102.742 25.006 102.192 26.018C101.664 27.008 101.4 28.152 101.4 29.45C101.4 30.748 101.664 31.903 102.192 32.915C102.742 33.905 103.501 34.675 104.469 35.225C105.459 35.775 106.581 36.05 107.835 36.05C109.969 36.05 111.784 35.148 113.28 33.344L117.438 37.106C116.316 38.514 114.908 39.592 113.214 40.34C111.52 41.088 109.617 41.462 107.505 41.462Z" fill="#FFFAF3"/>
<path d="M130.752 41.462C127.32 41.462 124.647 40.527 122.733 38.657C120.841 36.787 119.895 34.136 119.895 30.704V17.9L126.429 17.9V30.506C126.429 34.202 127.892 36.05 130.818 36.05C133.722 36.05 135.174 34.202 135.174 30.506V17.9H141.609V30.704C141.609 34.136 140.652 36.787 138.738 38.657C136.846 40.527 134.184 41.462 130.752 41.462Z" fill="#FFFAF3"/>
<path d="M146.036 17.9H152.57V35.819H163.592V41H146.036V17.9Z" fill="#FFFAF3"/>
<path d="M181.912 36.512H172.144L170.329 41H163.663L173.86 17.9H180.295L190.525 41H183.727L181.912 36.512ZM179.998 31.694L177.028 24.302L174.058 31.694H179.998Z" fill="#FFFAF3"/>
<path d="M196.134 23.081H189.039V17.9H209.73V23.081H202.668V41H196.134V23.081Z" fill="#FFFAF3"/>
<path d="M212.165 17.9H218.699V41H212.165V17.9Z" fill="#FFFAF3"/>
<path d="M234.996 41.462C232.554 41.462 230.354 40.945 228.396 39.911C226.46 38.877 224.931 37.447 223.809 35.621C222.709 33.795 222.159 31.738 222.159 29.45C222.159 27.162 222.709 25.105 223.809 23.279C224.931 21.453 226.46 20.023 228.396 18.989C230.354 17.955 232.554 17.438 234.996 17.438C237.438 17.438 239.627 17.955 241.563 18.989C243.521 20.023 245.05 21.453 246.15 23.279C247.272 25.105 247.833 27.162 247.833 29.45C247.833 31.738 247.272 33.795 246.15 35.621C245.05 37.447 243.521 38.877 241.563 39.911C239.627 40.945 237.438 41.462 234.996 41.462ZM234.996 36.05C236.162 36.05 237.218 35.775 238.164 35.225C239.11 34.675 239.858 33.905 240.408 32.915C240.958 31.903 241.233 30.748 241.233 29.45C241.233 28.152 240.958 27.008 240.408 26.018C239.858 25.006 239.11 24.225 238.164 23.675C237.218 23.125 236.162 22.85 234.996 22.85C233.83 22.85 232.774 23.125 231.828 23.675C230.882 24.225 230.134 25.006 229.584 26.018C229.034 27.008 228.759 28.152 228.759 29.45C228.759 30.748 229.034 31.903 229.584 32.915C230.134 33.905 230.882 34.675 231.828 35.225C232.774 35.775 233.83 36.05 234.996 36.05Z" fill="#FFFAF3"/>
<path d="M273.233 17.9V41H267.854L257.657 28.691V41H251.255V17.9H256.634L266.831 30.209V17.9H273.233Z" fill="#FFFAF3"/>
<path d="M293.98 22.949V28.031H304.177V33.08H293.98V41H287.446V17.9L305.563 17.9V22.949H293.98Z" fill="#FFFAF3"/>
<path d="M308.619 17.9H315.153V35.819H326.175V41H308.619V17.9Z" fill="#FFFAF3"/>
<path d="M340.055 41.462C337.613 41.462 335.413 40.945 333.455 39.911C331.519 38.877 329.99 37.447 328.868 35.621C327.768 33.795 327.218 31.738 327.218 29.45C327.218 27.162 327.768 25.105 328.868 23.279C329.99 21.453 331.519 20.023 333.455 18.989C335.413 17.955 337.613 17.438 340.055 17.438C342.497 17.438 344.686 17.955 346.622 18.989C348.58 20.023 350.109 21.453 351.209 23.279C352.331 25.105 352.892 27.162 352.892 29.45C352.892 31.738 352.331 33.795 351.209 35.621C350.109 37.447 348.58 38.877 346.622 39.911C344.686 40.945 342.497 41.462 340.055 41.462ZM340.055 36.05C341.221 36.05 342.277 35.775 343.223 35.225C344.169 34.675 344.917 33.905 345.467 32.915C346.017 31.903 346.292 30.748 346.292 29.45C346.292 28.152 346.017 27.008 345.467 26.018C344.917 25.006 344.169 24.225 343.223 23.675C342.277 23.125 341.221 22.85 340.055 22.85C338.889 22.85 337.833 23.125 336.887 23.675C335.941 24.225 335.193 25.006 334.643 26.018C334.093 27.008 333.818 28.152 333.818 29.45C333.818 30.748 334.093 31.903 334.643 32.915C335.193 33.905 335.941 34.675 336.887 35.225C337.833 35.775 338.889 36.05 340.055 36.05Z" fill="#FFFAF3"/>
<path d="M391.742 17.9L384.251 41H377.255L372.833 26.942L368.213 41H361.217L353.726 17.9H360.458L365.111 32.651L369.995 17.9H376.001L380.654 32.783L385.505 17.9H391.742Z" fill="#FFFAF3"/>
</svg>
