<svg width="125" height="1024" viewBox="0 0 125 1024" fill="none" xmlns="http://www.w3.org/2000/svg">
<rect y="-12" width="102" height="1039" fill="#73829F"/>
<path d="M39.4081 991.87L39.4309 974.446L101.031 974.527L101.008 991.951L39.4081 991.87ZM39.524 903.442L101.124 903.523L101.105 917.866L68.2455 945.015L101.07 945.058L101.047 962.13L39.4472 962.05L39.466 947.706L72.3256 920.557L39.5016 920.514L39.524 903.442ZM102.413 860.17C102.404 866.682 101.018 872.547 98.2538 877.764C95.4897 882.923 91.671 886.996 86.7977 889.981C81.9245 892.908 76.4373 894.368 70.336 894.36C64.2346 894.352 58.7512 892.878 53.8857 889.938C49.0203 886.94 45.2124 882.857 42.4618 877.691C39.7113 872.466 38.3403 866.598 38.3489 860.086C38.3574 853.574 39.7437 847.738 42.5078 842.579C45.272 837.361 49.0907 833.289 53.9639 830.362C58.8371 827.377 64.3244 825.888 70.4257 825.896C76.5271 825.904 82.0104 827.407 86.8759 830.405C91.7413 833.345 95.5493 837.427 98.2998 842.652C101.05 847.819 102.421 853.658 102.413 860.17ZM87.9808 860.151C87.9849 857.041 87.2553 854.225 85.7919 851.7C84.3286 849.175 82.2779 847.178 79.6398 845.708C76.943 844.238 73.864 843.5 70.4027 843.496C66.9413 843.491 63.8897 844.221 61.2478 845.684C58.5472 847.147 56.4619 849.139 54.9919 851.66C53.522 854.18 52.785 856.995 52.7809 860.105C52.7768 863.214 53.5064 866.031 54.9698 868.556C56.4331 871.08 58.5132 873.077 61.2099 874.548C63.848 876.018 66.8977 876.755 70.359 876.76C73.8204 876.764 76.9013 876.035 79.6019 874.572C82.2438 873.109 84.2998 871.117 85.7698 868.596C87.2397 866.075 87.9768 863.26 87.9808 860.151ZM102.51 786.1C102.502 792.553 101.145 798.359 98.4391 803.519C95.6751 808.619 91.8565 812.633 86.9833 815.56C82.1101 818.487 76.5936 819.946 70.4336 819.938C64.2736 819.93 58.7608 818.456 53.8953 815.516C49.0299 812.576 45.2511 808.553 42.5592 803.445C39.8086 798.279 38.4376 792.469 38.446 786.016C38.4534 780.384 39.4574 775.311 41.458 770.796C43.4586 766.281 46.3382 762.53 50.0968 759.543L60.1142 770.644C55.2983 774.627 52.8866 779.464 52.8792 785.155C52.8748 788.499 53.6042 791.492 55.0674 794.134C56.5307 796.717 58.6107 798.744 61.3074 800.214C63.9456 801.625 66.9953 802.333 70.4566 802.338C73.918 802.342 76.9989 801.642 79.6994 800.238C82.3413 798.775 84.3973 796.753 85.8674 794.174C87.3375 791.536 88.0748 788.545 88.0791 785.201C88.0866 779.51 85.6876 774.667 80.8822 770.672L90.9287 759.597C94.6795 762.594 97.5492 766.352 99.5379 770.872C101.527 775.392 102.517 780.468 102.51 786.1ZM102.591 724.107C102.579 733.259 100.077 740.383 95.0832 745.481C90.09 750.52 83.0173 753.033 73.8653 753.021L39.7214 752.976L39.7442 735.552L73.3602 735.596C83.2162 735.609 88.1493 731.714 88.1595 723.912C88.1697 716.168 83.2468 712.289 73.3908 712.276L39.7748 712.232L39.7973 695.072L73.9413 695.117C83.0933 695.129 90.1592 697.69 95.1392 702.801C100.119 707.853 102.603 714.955 102.591 724.107ZM39.8128 683.269L39.8356 665.845L87.6196 665.907L87.6581 636.515L101.474 636.533L101.413 683.349L39.8128 683.269ZM89.5702 587.663L89.536 613.711L101.498 618.567L101.474 636.343L39.9101 609.07L39.9326 591.91L101.568 564.711L101.545 582.839L89.5702 587.663ZM76.7155 592.751L56.9931 600.645L76.6947 608.591L76.7155 592.751ZM53.804 549.691L53.7791 568.61L39.9632 568.592L40.0355 513.416L53.8515 513.435L53.8268 532.267L101.611 532.329L101.588 549.753L53.804 549.691ZM40.044 506.925L40.0669 489.501L101.667 489.582L101.644 507.006L40.044 506.925ZM102.956 446.123C102.947 452.635 101.561 458.5 98.7968 463.718C96.0327 468.877 92.214 472.949 87.3407 475.935C82.4675 478.862 76.9803 480.321 70.879 480.313C64.7776 480.305 59.2942 478.831 54.4287 475.892C49.5633 472.893 45.7554 468.811 43.0048 463.645C40.2543 458.42 38.8833 452.551 38.8919 446.039C38.9004 439.527 40.2867 433.692 43.0508 428.533C45.815 423.315 49.6337 419.243 54.5069 416.316C59.3801 413.33 64.8674 411.841 70.9687 411.849C77.0701 411.857 82.5534 413.36 87.4189 416.359C92.2843 419.299 96.0923 423.381 98.8428 428.606C101.593 433.772 102.964 439.611 102.956 446.123ZM88.5238 446.104C88.5279 442.995 87.7983 440.178 86.3349 437.653C84.8716 435.129 82.8209 433.131 80.1828 431.661C77.486 430.191 74.407 429.454 70.9457 429.449C67.4843 429.445 64.4327 430.174 61.7908 431.637C59.0902 433.1 57.0049 435.092 55.5349 437.613C54.065 440.134 53.3279 442.949 53.3239 446.058C53.3198 449.167 54.0494 451.984 55.5128 454.509C56.9761 457.034 59.0562 459.031 61.7529 460.501C64.391 461.971 67.4407 462.709 70.902 462.713C74.3634 462.718 77.4443 461.988 80.1449 460.525C82.7868 459.062 84.8428 457.07 86.3128 454.549C87.7827 452.029 88.5198 449.214 88.5238 446.104ZM40.2576 344.075L101.858 344.156L101.839 358.5L68.9791 385.649L101.803 385.692L101.781 402.764L40.1807 402.683L40.1996 388.339L73.0592 361.19L40.2352 361.147L40.2576 344.075ZM53.7941 288.769L67.3461 288.787L67.3818 261.595L80.8458 261.612L80.8101 288.804L101.93 288.832L101.907 306.256L40.3073 306.175L40.3707 257.863L53.8347 257.881L53.7941 288.769ZM40.3814 249.714L40.4042 232.29L88.1882 232.353L88.2267 202.961L102.043 202.979L101.981 249.795L40.3814 249.714ZM103.323 165.967C103.315 172.479 101.928 178.344 99.1642 183.562C96.4001 188.721 92.5814 192.793 87.7081 195.779C82.835 198.706 77.3477 200.165 71.2464 200.157C65.145 200.149 59.6616 198.675 54.7962 195.736C49.9308 192.737 46.1228 188.655 43.3722 183.489C40.6217 178.264 39.2507 172.395 39.2593 165.883C39.2678 159.371 40.6541 153.536 43.4183 148.377C46.1824 143.159 50.0011 139.087 54.8743 136.16C59.7475 133.174 65.2348 131.685 71.3362 131.693C77.4375 131.701 82.9209 133.204 87.7863 136.203C92.6517 139.142 96.4597 143.225 99.2102 148.45C101.961 153.616 103.332 159.455 103.323 165.967ZM88.8913 165.948C88.8953 162.839 88.1657 160.022 86.7023 157.497C85.239 154.973 83.1883 152.975 80.5502 151.505C77.8534 150.035 74.7744 149.298 71.3131 149.293C67.8517 149.289 64.8001 150.018 62.1582 151.481C59.4576 152.944 57.3723 154.936 55.9024 157.457C54.4324 159.978 53.6954 162.793 53.6913 165.902C53.6872 169.011 54.4168 171.828 55.8802 174.353C57.3436 176.878 59.4236 178.875 62.1203 180.345C64.7584 181.815 67.8081 182.553 71.2695 182.557C74.7308 182.562 77.8117 181.832 80.5123 180.369C83.1543 178.906 85.2102 176.914 86.6802 174.393C88.1501 171.873 88.8872 169.058 88.8913 165.948ZM40.672 28.0514L102.246 48.1082L102.221 66.7642L64.7179 78.507L102.19 90.8762L102.165 109.532L40.5391 129.427L40.5626 111.475L79.9149 99.119L40.596 86.0434L40.617 70.0274L80.3212 57.6715L40.6502 44.6834L40.672 28.0514Z" fill="#FFFAF3"/>
</svg>
