<svg width="30" height="30" viewBox="0 0 30 30" fill="none" xmlns="http://www.w3.org/2000/svg">
<path d="M15.1 0.300293C9.09997 0.300293 5.09998 4.30029 5.09998 10.1003C5.09998 17.9003 12.3 27.6003 14.2 29.5003C14.3 29.6003 14.5 29.7003 14.7 29.7003C14.9 29.7003 15.1 29.6003 15.2 29.4003C16.2 28.3003 24.8 18.3003 24.8 10.1003C24.9 3.30029 20 0.300293 15.1 0.300293ZM14.7 27.8003C12.4 25.1003 6.59998 16.7003 6.59998 10.1003C6.59998 5.00029 9.89997 1.80029 15.1 1.80029C18.9 1.80029 23.4 4.00029 23.4 10.1003C23.4 16.0003 18.2 23.8003 14.7 27.8003ZM15 6.10029C12.8 6.10029 11 7.90029 11 10.1003C11 12.3003 12.8 14.1003 15 14.1003C17.2 14.1003 19 12.3003 19 10.1003C19 7.90029 17.2 6.10029 15 6.10029ZM15 12.6003C13.6 12.6003 12.5 11.5003 12.5 10.1003C12.5 8.70029 13.6 7.60029 15 7.60029C16.4 7.60029 17.5 8.70029 17.5 10.1003C17.5 11.5003 16.4 12.6003 15 12.6003Z" fill="white"/>
</svg>
