<svg width="160" height="70" viewBox="0 0 160 70" fill="none" xmlns="http://www.w3.org/2000/svg">
<rect y="14" width="126.355" height="40" rx="20" fill="#73829F"/>
<path d="M34.3705 40.224C33.4638 40.224 32.5838 40.112 31.7305 39.888C30.8771 39.664 30.1838 39.3653 29.6505 38.992L30.6905 36.656C31.1918 36.9867 31.7731 37.2533 32.4345 37.456C33.0958 37.6587 33.7465 37.76 34.3865 37.76C35.6025 37.76 36.2105 37.456 36.2105 36.848C36.2105 36.528 36.0345 36.2933 35.6825 36.144C35.3411 35.984 34.7865 35.8187 34.0185 35.648C33.1758 35.4667 32.4718 35.2747 31.9065 35.072C31.3411 34.8587 30.8558 34.5227 30.4505 34.064C30.0451 33.6053 29.8425 32.9867 29.8425 32.208C29.8425 31.5253 30.0291 30.912 30.4025 30.368C30.7758 29.8133 31.3305 29.376 32.0665 29.056C32.8131 28.736 33.7251 28.576 34.8025 28.576C35.5385 28.576 36.2638 28.6613 36.9785 28.832C37.6931 28.992 38.3225 29.232 38.8665 29.552L37.8905 31.904C36.8238 31.328 35.7891 31.04 34.7865 31.04C34.1571 31.04 33.6985 31.136 33.4105 31.328C33.1225 31.5093 32.9785 31.7493 32.9785 32.048C32.9785 32.3467 33.1491 32.5707 33.4905 32.72C33.8318 32.8693 34.3811 33.024 35.1385 33.184C35.9918 33.3653 36.6958 33.5627 37.2505 33.776C37.8158 33.9787 38.3011 34.3093 38.7065 34.768C39.1225 35.216 39.3305 35.8293 39.3305 36.608C39.3305 37.28 39.1438 37.888 38.7705 38.432C38.3971 38.976 37.8371 39.4133 37.0905 39.744C36.3438 40.064 35.4371 40.224 34.3705 40.224ZM46.6338 39.648C46.3778 39.808 46.0632 39.9307 45.6898 40.016C45.3272 40.1013 44.9378 40.144 44.5218 40.144C43.3912 40.144 42.5218 39.8667 41.9138 39.312C41.3058 38.7573 41.0018 37.9307 41.0018 36.832V33.92H39.7378V31.648H41.0018V29.392H44.0418V31.648H46.0258V33.92H44.0418V36.8C44.0418 37.1093 44.1218 37.3547 44.2818 37.536C44.4525 37.7067 44.6765 37.792 44.9538 37.792C45.3058 37.792 45.6152 37.7013 45.8818 37.52L46.6338 39.648ZM56.4201 35.68C56.4201 35.7013 56.4041 35.952 56.3721 36.432H50.0681C50.1961 36.88 50.4414 37.2267 50.8041 37.472C51.1774 37.7067 51.6414 37.824 52.1961 37.824C52.6121 37.824 52.9694 37.7653 53.2681 37.648C53.5774 37.5307 53.8867 37.3387 54.1961 37.072L55.7961 38.736C54.9534 39.6747 53.7214 40.144 52.1001 40.144C51.0867 40.144 50.1961 39.952 49.4281 39.568C48.6601 39.184 48.0627 38.6507 47.6361 37.968C47.2201 37.2853 47.0121 36.512 47.0121 35.648C47.0121 34.7947 47.2147 34.032 47.6201 33.36C48.0361 32.6773 48.6067 32.144 49.3321 31.76C50.0574 31.376 50.8734 31.184 51.7801 31.184C52.6441 31.184 53.4281 31.3653 54.1321 31.728C54.8361 32.08 55.3907 32.5973 55.7961 33.28C56.2121 33.952 56.4201 34.752 56.4201 35.68ZM51.7961 33.344C51.3267 33.344 50.9321 33.4773 50.6121 33.744C50.3027 34.0107 50.1054 34.3733 50.0201 34.832H53.5721C53.4867 34.3733 53.2841 34.0107 52.9641 33.744C52.6547 33.4773 52.2654 33.344 51.7961 33.344ZM63.2777 31.184C64.067 31.184 64.7817 31.3707 65.4217 31.744C66.0724 32.1067 66.5844 32.6293 66.9577 33.312C67.3417 33.984 67.5337 34.768 67.5337 35.664C67.5337 36.56 67.3417 37.3493 66.9577 38.032C66.5844 38.704 66.0724 39.2267 65.4217 39.6C64.7817 39.9627 64.067 40.144 63.2777 40.144C62.2644 40.144 61.459 39.84 60.8617 39.232V43.104H57.8217V31.328H60.7177V32.192C61.283 31.52 62.1364 31.184 63.2777 31.184ZM62.6377 37.728C63.171 37.728 63.6084 37.5467 63.9497 37.184C64.291 36.8107 64.4617 36.304 64.4617 35.664C64.4617 35.024 64.291 34.5227 63.9497 34.16C63.6084 33.7867 63.171 33.6 62.6377 33.6C62.1044 33.6 61.667 33.7867 61.3257 34.16C60.9844 34.5227 60.8137 35.024 60.8137 35.664C60.8137 36.304 60.9844 36.8107 61.3257 37.184C61.667 37.5467 62.1044 37.728 62.6377 37.728ZM81.827 37.488V40H73.107V38.016L77.299 34.096C77.7043 33.712 77.9763 33.3867 78.115 33.12C78.2536 32.8427 78.323 32.5653 78.323 32.288C78.323 31.9253 78.2003 31.6427 77.955 31.44C77.7096 31.2373 77.3523 31.136 76.883 31.136C76.467 31.136 76.083 31.232 75.731 31.424C75.3896 31.6053 75.107 31.872 74.883 32.224L72.531 30.912C72.9683 30.1867 73.5816 29.616 74.371 29.2C75.1603 28.784 76.0936 28.576 77.171 28.576C78.0243 28.576 78.7763 28.7147 79.427 28.992C80.0883 29.2693 80.6003 29.6693 80.963 30.192C81.3363 30.704 81.523 31.3013 81.523 31.984C81.523 32.592 81.3896 33.168 81.123 33.712C80.867 34.2453 80.3656 34.8533 79.619 35.536L77.507 37.488H81.827Z" fill="white"/>
<path d="M124.675 67.5C142.778 67.5 157.5 52.9746 157.5 35C157.5 17.0254 142.778 2.5 124.675 2.5C106.571 2.5 91.8496 17.0254 91.8496 35C91.8496 52.9746 106.571 67.5 124.675 67.5Z" fill="#FEFEFE" stroke="#73829F" stroke-width="5"/>
<path d="M132.309 23.8526L131.733 23.2203L129.572 25.5934L128.758 24.7002L128.182 25.3324L129.572 26.8578L132.309 23.8526Z" fill="#73829F"/>
<path d="M111.514 14.0955V56.2154H139.416V23.9798H138.601V55.3213H112.328V14.9896H138.601V20.2544H139.416V14.0955H111.514Z" fill="#73829F"/>
<path d="M139.416 21.5908H138.602V22.7579H139.416V21.5908Z" fill="#73829F"/>
<path d="M113.051 48.3438V53.8574H134.271L137.878 50.0701V17.3933H129.469C129.512 17.132 129.536 16.8634 129.536 16.5886V15.8733H121.393V16.5886C121.393 16.8634 121.417 17.132 121.46 17.3933H113.051V46.8594H113.865V18.2874H121.699C122.309 19.9122 123.767 21.0591 125.465 21.0591C127.162 21.0591 128.62 19.9122 129.23 18.2874H137.064V49.3574H133.619V51.8311H134.433V50.2515H136.527L133.944 52.9633H113.865V48.3438H113.051ZM125.465 20.165C123.723 20.165 122.296 18.6567 122.211 16.7674H128.718C128.633 18.6567 127.206 20.165 125.465 20.165Z" fill="#73829F"/>
<path d="M127.338 17.3932H123.592V18.2873H127.338V17.3932Z" fill="#73829F"/>
<path d="M120.113 27.3673V34.2036H125.963V33.3095H120.927V27.3673H120.113Z" fill="#73829F"/>
<path d="M122.752 24.5691V24.5696H120.112V26.1957H120.927V25.4637H122.752V30.5721H126.531V25.4637H126.883C127.034 26.5136 127.584 27.4196 128.356 27.9878V33.3092H127.194V34.2033H129.171V28.4261C129.509 28.55 129.87 28.618 130.245 28.618C132.122 28.618 133.649 26.9416 133.649 24.881C133.649 22.8202 132.122 21.1438 130.245 21.1438C128.464 21.1438 126.999 22.6542 126.854 24.5695H126.531V24.569H122.752V24.5691ZM125.717 29.6779H123.566V25.4636H125.717V29.6779ZM130.245 22.0379C131.673 22.0379 132.835 23.3133 132.835 24.881C132.835 26.4486 131.673 27.7239 130.245 27.7239C128.818 27.7239 127.656 26.4486 127.656 24.881C127.656 23.3133 128.818 22.0379 130.245 22.0379Z" fill="#73829F"/>
<path d="M118.766 38.1896V37.2955H116.209V41.9672H120.464V38.7001L121.451 37.6168L120.875 36.9846L118.672 39.4034L117.976 38.6401L117.401 39.2723L118.672 40.6679L119.65 39.5942V41.0731H117.023V38.1896H118.766Z" fill="#73829F"/>
<path d="M116.209 48.7908H120.464V45.5238L121.451 44.4405L120.875 43.8082L118.672 46.227L117.976 45.4637L117.401 46.0959L118.672 47.4916L119.65 46.4179V47.8967H117.023V45.0133H118.766V44.1192H116.209V48.7908Z" fill="#73829F"/>
<path d="M134.026 39.4338H122.884V40.3279H134.026V39.4338Z" fill="#73829F"/>
<path d="M134.026 37.8206H122.884V38.7147H134.026V37.8206Z" fill="#73829F"/>
<path d="M134.026 45.7323H122.884V46.6264H134.026V45.7323Z" fill="#73829F"/>
<path d="M134.026 44.1191H122.884V45.0132H134.026V44.1191Z" fill="#73829F"/>
</svg>
