<svg width="160" height="70" viewBox="0 0 160 70" fill="none" xmlns="http://www.w3.org/2000/svg">
<rect x="32.3398" y="14" width="127.66" height="38.5117" rx="19.2558" fill="#73829F"/>
<path d="M86.4193 39.224C85.5126 39.224 84.6326 39.112 83.7793 38.888C82.9259 38.664 82.2326 38.3653 81.6993 37.992L82.7393 35.656C83.2406 35.9867 83.8219 36.2533 84.4833 36.456C85.1446 36.6587 85.7953 36.76 86.4353 36.76C87.6513 36.76 88.2593 36.456 88.2593 35.848C88.2593 35.528 88.0833 35.2933 87.7313 35.144C87.3899 34.984 86.8353 34.8187 86.0673 34.648C85.2246 34.4667 84.5206 34.2747 83.9553 34.072C83.3899 33.8587 82.9046 33.5227 82.4993 33.064C82.0939 32.6053 81.8913 31.9867 81.8913 31.208C81.8913 30.5253 82.0779 29.912 82.4513 29.368C82.8246 28.8133 83.3793 28.376 84.1153 28.056C84.8619 27.736 85.7739 27.576 86.8513 27.576C87.5873 27.576 88.3126 27.6613 89.0273 27.832C89.7419 27.992 90.3713 28.232 90.9153 28.552L89.9393 30.904C88.8726 30.328 87.8379 30.04 86.8353 30.04C86.2059 30.04 85.7473 30.136 85.4593 30.328C85.1713 30.5093 85.0273 30.7493 85.0273 31.048C85.0273 31.3467 85.1979 31.5707 85.5393 31.72C85.8806 31.8693 86.4299 32.024 87.1873 32.184C88.0406 32.3653 88.7446 32.5627 89.2993 32.776C89.8646 32.9787 90.3499 33.3093 90.7553 33.768C91.1713 34.216 91.3793 34.8293 91.3793 35.608C91.3793 36.28 91.1926 36.888 90.8193 37.432C90.4459 37.976 89.8859 38.4133 89.1393 38.744C88.3926 39.064 87.4859 39.224 86.4193 39.224ZM98.6827 38.648C98.4267 38.808 98.112 38.9307 97.7387 39.016C97.376 39.1013 96.9867 39.144 96.5707 39.144C95.44 39.144 94.5707 38.8667 93.9627 38.312C93.3547 37.7573 93.0507 36.9307 93.0507 35.832V32.92H91.7867V30.648H93.0507V28.392H96.0907V30.648H98.0747V32.92H96.0907V35.8C96.0907 36.1093 96.1707 36.3547 96.3307 36.536C96.5013 36.7067 96.7253 36.792 97.0027 36.792C97.3547 36.792 97.664 36.7013 97.9307 36.52L98.6827 38.648ZM108.469 34.68C108.469 34.7013 108.453 34.952 108.421 35.432H102.117C102.245 35.88 102.49 36.2267 102.853 36.472C103.226 36.7067 103.69 36.824 104.245 36.824C104.661 36.824 105.018 36.7653 105.317 36.648C105.626 36.5307 105.936 36.3387 106.245 36.072L107.845 37.736C107.002 38.6747 105.77 39.144 104.149 39.144C103.136 39.144 102.245 38.952 101.477 38.568C100.709 38.184 100.112 37.6507 99.6849 36.968C99.2689 36.2853 99.0609 35.512 99.0609 34.648C99.0609 33.7947 99.2636 33.032 99.6689 32.36C100.085 31.6773 100.656 31.144 101.381 30.76C102.106 30.376 102.922 30.184 103.829 30.184C104.693 30.184 105.477 30.3653 106.181 30.728C106.885 31.08 107.44 31.5973 107.845 32.28C108.261 32.952 108.469 33.752 108.469 34.68ZM103.845 32.344C103.376 32.344 102.981 32.4773 102.661 32.744C102.352 33.0107 102.154 33.3733 102.069 33.832H105.621C105.536 33.3733 105.333 33.0107 105.013 32.744C104.704 32.4773 104.314 32.344 103.845 32.344ZM115.327 30.184C116.116 30.184 116.831 30.3707 117.471 30.744C118.121 31.1067 118.633 31.6293 119.007 32.312C119.391 32.984 119.583 33.768 119.583 34.664C119.583 35.56 119.391 36.3493 119.007 37.032C118.633 37.704 118.121 38.2267 117.471 38.6C116.831 38.9627 116.116 39.144 115.327 39.144C114.313 39.144 113.508 38.84 112.911 38.232V42.104H109.871V30.328H112.767V31.192C113.332 30.52 114.185 30.184 115.327 30.184ZM114.687 36.728C115.22 36.728 115.657 36.5467 115.999 36.184C116.34 35.8107 116.511 35.304 116.511 34.664C116.511 34.024 116.34 33.5227 115.999 33.16C115.657 32.7867 115.22 32.6 114.687 32.6C114.153 32.6 113.716 32.7867 113.375 33.16C113.033 33.5227 112.863 34.024 112.863 34.664C112.863 35.304 113.033 35.8107 113.375 36.184C113.716 36.5467 114.153 36.728 114.687 36.728ZM130.964 32.28C131.892 32.472 132.601 32.856 133.092 33.432C133.593 33.9973 133.844 34.6853 133.844 35.496C133.844 36.1573 133.662 36.7707 133.3 37.336C132.948 37.9013 132.404 38.36 131.668 38.712C130.942 39.0533 130.041 39.224 128.964 39.224C128.174 39.224 127.39 39.128 126.612 38.936C125.844 38.744 125.177 38.472 124.612 38.12L125.764 35.736C126.201 36.0347 126.692 36.264 127.236 36.424C127.79 36.584 128.334 36.664 128.868 36.664C129.412 36.664 129.844 36.5627 130.164 36.36C130.484 36.1573 130.644 35.8693 130.644 35.496C130.644 34.7707 130.073 34.408 128.932 34.408H127.604V32.408L129.604 30.248H125.188V27.8H133.284V29.784L130.964 32.28Z" fill="white"/>
<circle cx="35" cy="35" r="32.5" fill="#FEFEFE" stroke="#73829F" stroke-width="5"/>
<path d="M33.1796 42.0395C32.2881 42.9835 31.6809 44.1862 31.435 45.4956C31.189 46.805 31.3153 48.1621 31.7978 49.3955C32.2803 50.6289 33.0974 51.6831 34.1458 52.4248C35.1941 53.1665 36.4267 53.5623 37.6875 53.5623C38.9483 53.5623 40.1809 53.1665 41.2292 52.4248C42.2776 51.6831 43.0947 50.6289 43.5772 49.3955C44.0597 48.1621 44.186 46.805 43.94 45.4956C43.6941 44.1862 43.087 42.9835 42.1954 42.0395C41.6063 41.4074 40.9044 40.9055 40.1305 40.5629C39.3567 40.2203 38.5263 40.0439 37.6875 40.0439C36.8487 40.0439 36.0183 40.2203 35.2445 40.5629C34.4706 40.9055 33.7688 41.4074 33.1796 42.0395ZM41.0686 50.3926C40.3999 51.1005 39.548 51.5826 38.6206 51.7779C37.6931 51.9731 36.7318 51.8728 35.8582 51.4896C34.9846 51.1064 34.2379 50.4576 33.7126 49.6251C33.1872 48.7926 32.9068 47.8138 32.9068 46.8126C32.9068 45.8113 33.1872 44.8326 33.7126 44.0001C34.2379 43.1676 34.9846 42.5187 35.8582 42.1355C36.7318 41.7523 37.6931 41.652 38.6206 41.8473C39.548 42.0426 40.3999 42.5246 41.0686 43.2325C41.9635 44.1831 42.466 45.4704 42.466 46.8126C42.466 48.1547 41.9635 49.4421 41.0686 50.3926Z" fill="#73829F"/>
<path d="M40.3116 44.5285L36.8906 48.1507L35.8602 47.0597C35.7099 46.906 35.5087 46.821 35.2997 46.8229C35.0908 46.8248 34.8909 46.9136 34.7432 47.07C34.5954 47.2264 34.5116 47.4381 34.5098 47.6593C34.508 47.8805 34.5883 48.0937 34.7335 48.2528L36.8906 50.5368L41.4384 45.7215C41.5835 45.5624 41.6638 45.3493 41.662 45.128C41.6602 44.9068 41.5764 44.6952 41.4287 44.5388C41.2809 44.3823 41.081 44.2936 40.8721 44.2917C40.6632 44.2897 40.4619 44.3748 40.3116 44.5285Z" fill="#73829F"/>
<path d="M16.9688 28.25H18.5625V48.5C18.5625 49.8427 19.0662 51.1303 19.9629 52.0797C20.8596 53.0291 22.0757 53.5625 23.3437 53.5625C24.6118 53.5625 25.8279 53.0291 26.7246 52.0797C27.6213 51.1303 28.125 49.8427 28.125 48.5V28.25H29.7187V22.3438H16.9688V28.25ZM26.5312 43.4375H24.9375V34.1562H26.5312V43.4375ZM26.5312 32.4688H23.3437V45.125H26.5312V48.5C26.5312 49.3951 26.1954 50.2535 25.5977 50.8865C24.9999 51.5194 24.1891 51.875 23.3437 51.875C22.4984 51.875 21.6876 51.5194 21.0898 50.8865C20.4921 50.2535 20.1562 49.3951 20.1562 48.5V28.25H26.5312V32.4688ZM18.5625 24.0312H28.125V26.5625H18.5625V24.0312Z" fill="#73829F"/>
<path d="M42.6791 22.6163C42.5724 22.7391 42.5025 22.8927 42.4783 23.0576C42.454 23.2225 42.4764 23.3913 42.5428 23.5426C42.6091 23.694 42.7163 23.8212 42.8509 23.908C42.9855 23.9948 43.1414 24.0375 43.2989 24.0305C43.4563 24.0236 43.6083 23.9673 43.7356 23.8689C43.8629 23.7705 43.9597 23.6343 44.0139 23.4776C44.0681 23.3209 44.0772 23.1507 44.04 22.9885C44.0029 22.8264 43.9211 22.6795 43.8051 22.5665C43.7281 22.4915 43.6379 22.4333 43.5396 22.3952C43.4413 22.3571 43.3369 22.3399 43.2324 22.3445C43.1278 22.3491 43.0251 22.3755 42.9302 22.4221C42.8353 22.4688 42.75 22.5347 42.6791 22.6163Z" fill="#73829F"/>
<path d="M39.702 24.5763C39.4886 24.822 39.3488 25.1291 39.3003 25.4589C39.2517 25.7887 39.2966 26.1263 39.4293 26.429C39.562 26.7318 39.7765 26.9861 40.0456 27.1598C40.3148 27.3334 40.6266 27.4187 40.9415 27.4048C41.2564 27.3909 41.5604 27.2784 41.8149 27.0815C42.0695 26.8847 42.2632 26.6123 42.3716 26.2989C42.48 25.9855 42.4981 25.6451 42.4238 25.3208C42.3495 24.9964 42.186 24.7027 41.954 24.4768C41.7999 24.3268 41.6195 24.2103 41.423 24.1341C41.2264 24.0579 41.0176 24.0235 40.8085 24.0327C40.5994 24.042 40.394 24.0947 40.2042 24.188C40.0143 24.2813 39.8437 24.4132 39.702 24.5763Z" fill="#73829F"/>
<path d="M46.7352 26.1643C46.5032 25.9383 46.2131 25.7903 45.9017 25.7389C45.5902 25.6875 45.2714 25.735 44.9854 25.8755C44.6995 26.016 44.4593 26.2431 44.2953 26.5281C44.1313 26.8131 44.0507 27.1432 44.0639 27.4767C44.077 27.8101 44.1833 28.132 44.3692 28.4015C44.5551 28.671 44.8123 28.8761 45.1083 28.9909C45.4043 29.1056 45.7258 29.1249 46.0321 29.0462C46.3384 28.9674 46.6158 28.7943 46.8292 28.5487C46.9709 28.3856 47.0809 28.1945 47.1528 27.9864C47.2248 27.7783 47.2573 27.5573 47.2486 27.3359C47.2399 27.1144 47.19 26.897 47.102 26.696C47.0139 26.495 46.8892 26.3143 46.7352 26.1643Z" fill="#73829F"/>
<path d="M42.6791 29.3663C42.5724 29.4891 42.5025 29.6427 42.4783 29.8076C42.454 29.9725 42.4764 30.1413 42.5428 30.2926C42.6091 30.444 42.7163 30.5712 42.8509 30.658C42.9855 30.7448 43.1414 30.7875 43.2989 30.7805C43.4563 30.7736 43.6083 30.7173 43.7356 30.6189C43.8629 30.5205 43.9597 30.3843 44.0139 30.2276C44.0681 30.0709 44.0772 29.9007 44.04 29.7385C44.0029 29.5764 43.9211 29.4295 43.8051 29.3165C43.7281 29.2415 43.6379 29.1833 43.5396 29.1452C43.4413 29.1071 43.3369 29.0899 43.2324 29.0945C43.1278 29.0991 43.0251 29.1255 42.9302 29.1721C42.8353 29.2188 42.75 29.2847 42.6791 29.3663Z" fill="#73829F"/>
<path d="M52.34 26.0739C52.2377 26.0502 52.132 26.0481 52.0289 26.0676C51.9258 26.0872 51.8274 26.1281 51.7392 26.188C51.6511 26.2478 51.575 26.3255 51.5152 26.4165C51.4554 26.5076 51.4132 26.6102 51.3909 26.7185L51.2204 27.5429L49.6091 27.1691C49.6362 26.8739 49.645 26.5771 49.6354 26.2806C49.5787 24.7832 49.0489 23.3493 48.1309 22.2087L48.7078 21.5447L49.2935 22.115C49.3699 22.1936 49.4603 22.2551 49.5595 22.296C49.6587 22.3368 49.7646 22.3563 49.871 22.3531C49.9774 22.35 50.0821 22.3243 50.179 22.2775C50.2758 22.2308 50.3629 22.164 50.4349 22.0811C50.507 21.9982 50.5627 21.9008 50.5986 21.7948C50.6346 21.6887 50.6501 21.5761 50.6443 21.4636C50.6385 21.351 50.6114 21.2409 50.5647 21.1396C50.5181 21.0383 50.4527 20.948 50.3725 20.8739L49.2003 19.7323L48.0265 18.589C47.9501 18.5105 47.8597 18.449 47.7605 18.4081C47.6613 18.3672 47.5554 18.3478 47.449 18.3509C47.3426 18.3541 47.2379 18.3798 47.141 18.4265C47.0442 18.4732 46.9571 18.54 46.8851 18.6229C46.813 18.7059 46.7573 18.8032 46.7213 18.9093C46.6854 19.0154 46.6699 19.128 46.6757 19.2405C46.6815 19.353 46.7086 19.4632 46.7552 19.5645C46.8019 19.6657 46.8673 19.7561 46.9475 19.8302L47.534 20.4014L46.9571 21.0663C45.6881 20.112 44.1328 19.683 42.5854 19.8605L42.2045 18.1579L42.9807 17.963C43.1841 17.9092 43.3594 17.7727 43.4684 17.583C43.5775 17.3934 43.6115 17.1659 43.5632 16.9498C43.5149 16.7337 43.388 16.5466 43.2102 16.4288C43.0324 16.3111 42.8179 16.2724 42.6133 16.321L39.5111 17.099C39.3211 17.1467 39.1543 17.2666 39.0423 17.4359C38.9303 17.6053 38.8809 17.8123 38.9035 18.0176C38.9261 18.223 39.0191 18.4124 39.1649 18.5499C39.3107 18.6874 39.4991 18.7635 39.6944 18.7637C39.7563 18.7635 39.8181 18.7559 39.8784 18.7409L40.6546 18.546L41.0347 20.2461C40.1624 20.5877 39.3719 21.1284 38.7191 21.8298C38.0663 22.5312 37.5673 23.3761 37.2575 24.3046L35.6518 23.9325L35.8223 23.109C35.8676 22.8904 35.8289 22.6617 35.7149 22.4732C35.6009 22.2847 35.4208 22.152 35.2143 22.1041C35.0078 22.0562 34.7918 22.0971 34.6139 22.2178C34.4359 22.3386 34.3105 22.5292 34.2652 22.7479L33.5839 26.0452C33.5615 26.1535 33.5594 26.2654 33.5779 26.3745C33.5963 26.4835 33.6349 26.5877 33.6913 26.681C33.7478 26.7744 33.821 26.855 33.9069 26.9183C33.9928 26.9817 34.0897 27.0264 34.1919 27.0501C34.2483 27.0628 34.3057 27.0693 34.3633 27.0695C34.545 27.0693 34.7212 27.0034 34.8626 26.8826C35.0041 26.7618 35.1023 26.5935 35.141 26.4055L35.3115 25.5812L36.9228 25.955C36.8957 26.2502 36.8869 26.547 36.8965 26.8434C36.9541 28.3416 37.4854 29.7759 38.405 30.9162L37.8281 31.5802L37.2424 31.0099C37.166 30.9314 37.0756 30.8698 36.9764 30.8289C36.8772 30.7881 36.7713 30.7686 36.6649 30.7718C36.5585 30.7749 36.4538 30.8006 36.3569 30.8474C36.2601 30.8941 36.173 30.9609 36.1009 31.0438C36.0289 31.1267 35.9732 31.2241 35.9372 31.3301C35.9013 31.4362 35.8857 31.5488 35.8916 31.6614C35.8974 31.7739 35.9244 31.884 35.9711 31.9853C36.0178 32.0866 36.0832 32.1769 36.1634 32.251L37.3316 33.3968L38.5038 34.5384C38.5802 34.6169 38.6706 34.6784 38.7698 34.7193C38.869 34.7602 38.9749 34.7797 39.0813 34.7765C39.1877 34.7733 39.2924 34.7476 39.3893 34.7009C39.4861 34.6542 39.5732 34.5874 39.6452 34.5045C39.7173 34.4216 39.773 34.3242 39.809 34.2181C39.8449 34.1121 39.8604 33.9995 39.8546 33.8869C39.8488 33.7744 39.8217 33.6642 39.7751 33.563C39.7284 33.4617 39.663 33.3714 39.5828 33.2973L38.9963 32.726L39.574 32.0612C40.8405 33.0215 42.3974 33.4524 43.9457 33.2711L44.3258 34.9696L43.5496 35.1645C43.3596 35.2122 43.1928 35.3321 43.0808 35.5015C42.9688 35.6708 42.9194 35.8778 42.942 36.0832C42.9646 36.2885 43.0577 36.4779 43.2035 36.6154C43.3493 36.753 43.5377 36.829 43.7329 36.8292C43.7949 36.8291 43.8567 36.8214 43.917 36.8064L47.0192 36.0285C47.2227 35.9747 47.398 35.8382 47.507 35.6486C47.6161 35.4589 47.6501 35.2314 47.6018 35.0153C47.5534 34.7993 47.4266 34.6121 47.2488 34.4944C47.071 34.3767 46.8565 34.3379 46.6519 34.3865L45.8757 34.5815L45.4972 32.8754C46.3698 32.535 47.1608 31.995 47.8138 31.294C48.4668 30.5929 48.9658 29.748 49.2752 28.8195L50.8809 29.1916L50.7104 30.0151C50.6879 30.1233 50.6859 30.2352 50.7043 30.3443C50.7227 30.4534 50.7613 30.5576 50.8178 30.6509C50.8742 30.7442 50.9475 30.8248 51.0334 30.8882C51.1193 30.9515 51.2161 30.9963 51.3184 31.02C51.3744 31.0331 51.4316 31.0396 51.4889 31.0394C51.6705 31.0392 51.8466 30.9734 51.9881 30.8528C52.1295 30.7322 52.2278 30.564 52.2666 30.3762L52.948 27.0788C52.9704 26.9706 52.9724 26.8587 52.954 26.7496C52.9356 26.6405 52.897 26.5363 52.8406 26.443C52.7841 26.3497 52.7108 26.2691 52.6249 26.2057C52.539 26.1424 52.4422 26.0976 52.34 26.0739ZM40.029 30.2927C39.333 29.6149 38.8424 28.7338 38.6193 27.7608C38.3962 26.7878 38.4506 25.7666 38.7756 24.8264C39.1006 23.8861 39.6817 23.069 40.4453 22.4784C41.2089 21.8878 42.1207 21.5502 43.0655 21.5083C44.0103 21.4664 44.9457 21.7221 45.7532 22.2431C46.5608 22.764 47.2043 23.5268 47.6024 24.435C48.0005 25.3432 48.1354 26.356 47.9899 27.3454C47.8443 28.3347 47.425 29.2561 46.7849 29.9931C45.9253 30.9794 44.7313 31.5644 43.4648 31.6199C42.1983 31.6754 40.9628 31.1969 40.029 30.2893V30.2927Z" fill="#73829F"/>
</svg>
