<svg width="160" height="70" viewBox="0 0 160 70" fill="none" xmlns="http://www.w3.org/2000/svg">
<rect x="35" y="15.7438" width="125" height="39.0681" rx="19.534" fill="#73829F"/>
<path d="M84.7812 40.9678C83.8745 40.9678 82.9945 40.8558 82.1412 40.6318C81.2878 40.4078 80.5945 40.1091 80.0612 39.7358L81.1012 37.3998C81.6025 37.7304 82.1838 37.9971 82.8452 38.1998C83.5065 38.4024 84.1572 38.5038 84.7972 38.5038C86.0132 38.5038 86.6212 38.1998 86.6212 37.5918C86.6212 37.2718 86.4452 37.0371 86.0932 36.8878C85.7518 36.7278 85.1972 36.5624 84.4292 36.3918C83.5865 36.2104 82.8825 36.0184 82.3172 35.8158C81.7518 35.6024 81.2665 35.2664 80.8612 34.8078C80.4558 34.3491 80.2532 33.7304 80.2532 32.9518C80.2532 32.2691 80.4398 31.6558 80.8132 31.1118C81.1865 30.5571 81.7412 30.1198 82.4772 29.7998C83.2238 29.4798 84.1358 29.3198 85.2132 29.3198C85.9492 29.3198 86.6745 29.4051 87.3892 29.5758C88.1038 29.7358 88.7332 29.9758 89.2772 30.2958L88.3012 32.6478C87.2345 32.0718 86.1998 31.7838 85.1972 31.7838C84.5678 31.7838 84.1092 31.8798 83.8212 32.0718C83.5332 32.2531 83.3892 32.4931 83.3892 32.7918C83.3892 33.0904 83.5598 33.3144 83.9012 33.4638C84.2425 33.6131 84.7918 33.7678 85.5492 33.9278C86.4025 34.1091 87.1065 34.3064 87.6612 34.5198C88.2265 34.7224 88.7118 35.0531 89.1172 35.5118C89.5332 35.9598 89.7412 36.5731 89.7412 37.3518C89.7412 38.0238 89.5545 38.6318 89.1812 39.1758C88.8078 39.7198 88.2478 40.1571 87.5012 40.4878C86.7545 40.8078 85.8478 40.9678 84.7812 40.9678ZM97.0445 40.3918C96.7885 40.5518 96.4739 40.6744 96.1005 40.7598C95.7379 40.8451 95.3485 40.8878 94.9325 40.8878C93.8019 40.8878 92.9325 40.6104 92.3245 40.0558C91.7165 39.5011 91.4125 38.6744 91.4125 37.5758V34.6638H90.1485V32.3918H91.4125V30.1358H94.4525V32.3918H96.4365V34.6638H94.4525V37.5438C94.4525 37.8531 94.5325 38.0984 94.6925 38.2798C94.8632 38.4504 95.0872 38.5358 95.3645 38.5358C95.7165 38.5358 96.0259 38.4451 96.2925 38.2638L97.0445 40.3918ZM106.831 36.4238C106.831 36.4451 106.815 36.6958 106.783 37.1758H100.479C100.607 37.6238 100.852 37.9704 101.215 38.2158C101.588 38.4504 102.052 38.5678 102.607 38.5678C103.023 38.5678 103.38 38.5091 103.679 38.3918C103.988 38.2744 104.297 38.0824 104.607 37.8158L106.207 39.4798C105.364 40.4184 104.132 40.8878 102.511 40.8878C101.497 40.8878 100.607 40.6958 99.8388 40.3118C99.0708 39.9278 98.4735 39.3944 98.0468 38.7118C97.6308 38.0291 97.4228 37.2558 97.4228 36.3918C97.4228 35.5384 97.6255 34.7758 98.0308 34.1038C98.4468 33.4211 99.0175 32.8878 99.7428 32.5038C100.468 32.1198 101.284 31.9278 102.191 31.9278C103.055 31.9278 103.839 32.1091 104.543 32.4718C105.247 32.8238 105.801 33.3411 106.207 34.0238C106.623 34.6958 106.831 35.4958 106.831 36.4238ZM102.207 34.0878C101.737 34.0878 101.343 34.2211 101.023 34.4878C100.713 34.7544 100.516 35.1171 100.431 35.5758H103.983C103.897 35.1171 103.695 34.7544 103.375 34.4878C103.065 34.2211 102.676 34.0878 102.207 34.0878ZM113.688 31.9278C114.478 31.9278 115.192 32.1144 115.832 32.4878C116.483 32.8504 116.995 33.3731 117.368 34.0558C117.752 34.7278 117.944 35.5118 117.944 36.4078C117.944 37.3038 117.752 38.0931 117.368 38.7758C116.995 39.4478 116.483 39.9704 115.832 40.3438C115.192 40.7064 114.478 40.8878 113.688 40.8878C112.675 40.8878 111.87 40.5838 111.272 39.9758V43.8478H108.232V32.0718H111.128V32.9358C111.694 32.2638 112.547 31.9278 113.688 31.9278ZM113.048 38.4718C113.582 38.4718 114.019 38.2904 114.36 37.9278C114.702 37.5544 114.872 37.0478 114.872 36.4078C114.872 35.7678 114.702 35.2664 114.36 34.9038C114.019 34.5304 113.582 34.3438 113.048 34.3438C112.515 34.3438 112.078 34.5304 111.736 34.9038C111.395 35.2664 111.224 35.7678 111.224 36.4078C111.224 37.0478 111.395 37.5544 111.736 37.9278C112.078 38.2904 112.515 38.4718 113.048 38.4718ZM128.382 29.5438V40.7438H125.214V31.9918H123.134V29.5438H128.382Z" fill="white"/>
<circle cx="35" cy="35" r="32.5" fill="#FEFEFE" stroke="#73829F" stroke-width="5"/>
<path d="M43.5889 56.0707H24.1619C22.4191 56.0707 21.0063 54.6579 21.0063 52.9152V14.3284C21.0063 12.5856 22.4191 11.1729 24.1619 11.1729H43.5889C45.3316 11.1729 46.7444 12.5856 46.7444 14.3284V52.9152C46.7444 54.6579 45.3316 56.0707 43.5889 56.0707Z" stroke="#73829F" stroke-width="2" stroke-miterlimit="10" stroke-linecap="round" stroke-linejoin="round"/>
<path d="M46.7444 16.8511H21.0063V51.779H46.7444V16.8511Z" stroke="#73829F" stroke-width="2" stroke-miterlimit="10" stroke-linecap="round" stroke-linejoin="round"/>
<path d="M34.5175 54.6685C34.9134 54.3138 34.9468 53.7053 34.5921 53.3094C34.2374 52.9135 33.6289 52.8801 33.233 53.2348C32.8371 53.5895 32.8037 54.198 33.1584 54.5939C33.5131 54.9898 34.1216 55.0232 34.5175 54.6685Z" fill="#73829F"/>
<path d="M38.1747 14.4575C38.4757 14.4575 38.7196 14.238 38.7196 13.9673C38.7196 13.6965 38.4757 13.4771 38.1747 13.4771C37.8738 13.4771 37.6299 13.6965 37.6299 13.9673C37.6299 14.238 37.8738 14.4575 38.1747 14.4575Z" fill="#73829F"/>
<path d="M29.0312 13.9674H34.5836" stroke="#73829F" stroke-width="2" stroke-miterlimit="10" stroke-linecap="round" stroke-linejoin="round"/>
<g clip-path="url(#clip0)">
<path d="M42.056 38.6958H25.7143C25.0385 38.6958 24.4888 38.1461 24.4888 37.4703V21.1286C24.4888 20.4528 25.0385 19.9031 25.7143 19.9031H42.056C42.7318 19.9031 43.2815 20.4528 43.2815 21.1286V37.4703C43.2815 38.1461 42.7318 38.6958 42.056 38.6958ZM25.7143 20.72C25.4891 20.72 25.3057 20.9034 25.3057 21.1286V37.4703C25.3057 37.6957 25.4891 37.8789 25.7143 37.8789H42.056C42.2814 37.8789 42.4645 37.6957 42.4645 37.4703V21.1286C42.4645 20.9034 42.2814 20.72 42.056 20.72H25.7143Z" fill="#73829F"/>
<path d="M40.2178 25.5204H33.6811C33.4555 25.5204 33.2725 25.3374 33.2725 25.1118C33.2725 24.8862 33.4555 24.7032 33.6811 24.7032H40.2178C40.4436 24.7032 40.6264 24.8862 40.6264 25.1118C40.6264 25.3376 40.4436 25.5204 40.2178 25.5204ZM40.2178 30.6273H27.553C27.3274 30.6273 27.1444 30.4445 27.1444 30.2187C27.1444 29.9929 27.3274 29.8101 27.553 29.8101H40.2178C40.4436 29.8101 40.6264 29.9929 40.6264 30.2187C40.6264 30.4445 40.4436 30.6273 40.2178 30.6273ZM40.2178 35.1213H27.553C27.3274 35.1213 27.1444 34.9385 27.1444 34.7127C27.1444 34.4869 27.3274 34.3041 27.553 34.3041H40.2178C40.4436 34.3041 40.6264 34.4869 40.6264 34.7127C40.6264 34.9385 40.4436 35.1213 40.2178 35.1213ZM29.1871 27.5631C27.8355 27.5631 26.7358 26.4636 26.7358 25.1118C26.7358 23.76 27.8353 22.6605 29.1871 22.6605C30.539 22.6605 31.6384 23.76 31.6384 25.1118C31.6384 26.4636 30.539 27.5631 29.1871 27.5631ZM29.1871 23.4777C28.2861 23.4777 27.553 24.2108 27.553 25.1118C27.553 26.0128 28.2861 26.7459 29.1871 26.7459C30.0882 26.7459 30.8213 26.0128 30.8213 25.1118C30.8213 24.2108 30.0884 23.4777 29.1871 23.4777Z" fill="#73829F"/>
</g>
<rect x="25.1084" y="40.9113" width="18.034" height="8.26702" rx="1.25" stroke="#73829F" stroke-width="1.5"/>
<defs>
<clipPath id="clip0">
<rect width="20.0185" height="20.0185" fill="white" transform="translate(23.8662 19.2755)"/>
</clipPath>
</defs>
</svg>
