<svg width="160" height="70" viewBox="0 0 160 70" fill="none" xmlns="http://www.w3.org/2000/svg">
<rect y="17" width="155" height="39" rx="19.5" fill="#73829F"/>
<path d="M32.2201 42.224C31.3134 42.224 30.4334 42.112 29.5801 41.888C28.7267 41.664 28.0334 41.3653 27.5001 40.992L28.5401 38.656C29.0414 38.9867 29.6227 39.2533 30.2841 39.456C30.9454 39.6587 31.5961 39.76 32.2361 39.76C33.4521 39.76 34.0601 39.456 34.0601 38.848C34.0601 38.528 33.8841 38.2933 33.5321 38.144C33.1907 37.984 32.6361 37.8187 31.8681 37.648C31.0254 37.4667 30.3214 37.2747 29.7561 37.072C29.1907 36.8587 28.7054 36.5227 28.3001 36.064C27.8947 35.6053 27.6921 34.9867 27.6921 34.208C27.6921 33.5253 27.8787 32.912 28.2521 32.368C28.6254 31.8133 29.1801 31.376 29.9161 31.056C30.6627 30.736 31.5747 30.576 32.6521 30.576C33.3881 30.576 34.1134 30.6613 34.8281 30.832C35.5427 30.992 36.1721 31.232 36.7161 31.552L35.7401 33.904C34.6734 33.328 33.6387 33.04 32.6361 33.04C32.0067 33.04 31.5481 33.136 31.2601 33.328C30.9721 33.5093 30.8281 33.7493 30.8281 34.048C30.8281 34.3467 30.9987 34.5707 31.3401 34.72C31.6814 34.8693 32.2307 35.024 32.9881 35.184C33.8414 35.3653 34.5454 35.5627 35.1001 35.776C35.6654 35.9787 36.1507 36.3093 36.5561 36.768C36.9721 37.216 37.1801 37.8293 37.1801 38.608C37.1801 39.28 36.9934 39.888 36.6201 40.432C36.2467 40.976 35.6867 41.4133 34.9401 41.744C34.1934 42.064 33.2867 42.224 32.2201 42.224ZM44.4834 41.648C44.2274 41.808 43.9128 41.9307 43.5394 42.016C43.1768 42.1013 42.7874 42.144 42.3714 42.144C41.2408 42.144 40.3714 41.8667 39.7634 41.312C39.1554 40.7573 38.8514 39.9307 38.8514 38.832V35.92H37.5874V33.648H38.8514V31.392H41.8914V33.648H43.8754V35.92H41.8914V38.8C41.8914 39.1093 41.9714 39.3547 42.1314 39.536C42.3021 39.7067 42.5261 39.792 42.8034 39.792C43.1554 39.792 43.4648 39.7013 43.7314 39.52L44.4834 41.648ZM54.2697 37.68C54.2697 37.7013 54.2537 37.952 54.2217 38.432H47.9177C48.0457 38.88 48.291 39.2267 48.6537 39.472C49.027 39.7067 49.491 39.824 50.0457 39.824C50.4617 39.824 50.819 39.7653 51.1177 39.648C51.427 39.5307 51.7364 39.3387 52.0457 39.072L53.6457 40.736C52.803 41.6747 51.571 42.144 49.9497 42.144C48.9364 42.144 48.0457 41.952 47.2777 41.568C46.5097 41.184 45.9124 40.6507 45.4857 39.968C45.0697 39.2853 44.8617 38.512 44.8617 37.648C44.8617 36.7947 45.0644 36.032 45.4697 35.36C45.8857 34.6773 46.4564 34.144 47.1817 33.76C47.907 33.376 48.723 33.184 49.6297 33.184C50.4937 33.184 51.2777 33.3653 51.9817 33.728C52.6857 34.08 53.2404 34.5973 53.6457 35.28C54.0617 35.952 54.2697 36.752 54.2697 37.68ZM49.6457 35.344C49.1764 35.344 48.7817 35.4773 48.4617 35.744C48.1524 36.0107 47.955 36.3733 47.8697 36.832H51.4217C51.3364 36.3733 51.1337 36.0107 50.8137 35.744C50.5044 35.4773 50.115 35.344 49.6457 35.344ZM61.1273 33.184C61.9166 33.184 62.6313 33.3707 63.2713 33.744C63.922 34.1067 64.434 34.6293 64.8073 35.312C65.1913 35.984 65.3833 36.768 65.3833 37.664C65.3833 38.56 65.1913 39.3493 64.8073 40.032C64.434 40.704 63.922 41.2267 63.2713 41.6C62.6313 41.9627 61.9166 42.144 61.1273 42.144C60.114 42.144 59.3086 41.84 58.7113 41.232V45.104H55.6713V33.328H58.5673V34.192C59.1326 33.52 59.986 33.184 61.1273 33.184ZM60.4873 39.728C61.0206 39.728 61.458 39.5467 61.7993 39.184C62.1406 38.8107 62.3113 38.304 62.3113 37.664C62.3113 37.024 62.1406 36.5227 61.7993 36.16C61.458 35.7867 61.0206 35.6 60.4873 35.6C59.954 35.6 59.5166 35.7867 59.1753 36.16C58.834 36.5227 58.6633 37.024 58.6633 37.664C58.6633 38.304 58.834 38.8107 59.1753 39.184C59.5166 39.5467 59.954 39.728 60.4873 39.728ZM81.5806 39.856H79.9166V42H76.8286V39.856H70.9086V37.792L75.9326 30.8H79.2126L74.6526 37.344H76.9246V35.44H79.9166V37.344H81.5806V39.856Z" fill="white"/>
<circle cx="124.312" cy="35" r="32.5" fill="#FEFEFE" stroke="#73829F" stroke-width="5"/>
<path d="M124.566 17.72C122.498 17.72 120.476 18.0814 118.555 18.7942L119.056 20.1442C120.816 19.4912 122.67 19.16 124.566 19.16C133.3 19.16 140.406 26.2657 140.406 35C140.406 43.7343 133.3 50.84 124.566 50.84C115.831 50.84 108.726 43.7343 108.726 35C108.726 30.2516 110.859 25.7876 114.486 22.7902V27.8H115.926V20.6H108.726V22.04H113.136C109.441 25.3016 107.286 30.0089 107.286 35C107.286 44.5277 115.038 52.28 124.566 52.28C134.093 52.28 141.846 44.5277 141.846 35C141.846 25.4722 134.093 17.72 124.566 17.72Z" fill="#73829F"/>
<path d="M120.246 40.7599H118.806V42.1999H130.326V40.7599H128.886V38.3018L125.584 34.9999L128.886 31.698V29.2399H130.326V27.7999H118.806V29.2399H120.246V31.698L123.548 34.9999L120.246 38.3018V40.7599ZM121.686 31.1018V29.2399H127.446V31.1018L124.566 33.9818L121.686 31.1018ZM124.566 36.018L127.446 38.898V40.7599H121.686V38.898L124.566 36.018Z" fill="#73829F"/>
<path d="M121.686 45.08H120.246V46.52H121.686V45.08Z" fill="#73829F"/>
<path d="M125.286 45.08H123.846V46.52H125.286V45.08Z" fill="#73829F"/>
<path d="M128.886 45.08H127.446V46.52H128.886V45.08Z" fill="#73829F"/>
</svg>
