<svg width="145" height="248" viewBox="0 0 145 248" fill="none" xmlns="http://www.w3.org/2000/svg">
<path d="M28 67H118V192H143L73 248L3 192H28V67Z" fill="url(#paint0_linear)"/>
<circle cx="72.5" cy="72.5" r="67.5" fill="#FEFEFE" stroke="#73829F" stroke-width="10"/>
<rect x="54.75" y="85.75" width="37.5" height="20.5" rx="1.25" stroke="#73829F" stroke-width="1.5"/>
<path d="M93.3795 119.198H52.6205C48.9641 119.198 46 116.234 46 112.578V31.6205C46 27.9641 48.9641 25 52.6205 25H93.3795C97.0359 25 100 27.9641 100 31.6205V112.578C100 116.234 97.0359 119.198 93.3795 119.198Z" stroke="#73829F" stroke-width="3" stroke-miterlimit="10" stroke-linecap="round" stroke-linejoin="round"/>
<path d="M100 36.9133H46V110.194H100V36.9133Z" stroke="#73829F" stroke-width="3" stroke-miterlimit="10" stroke-linecap="round" stroke-linejoin="round"/>
<path d="M74.3463 116.257C75.1769 115.513 75.247 114.236 74.5028 113.405C73.7586 112.575 72.482 112.505 71.6514 113.249C70.8207 113.993 70.7506 115.27 71.4948 116.1C72.239 116.931 73.5156 117.001 74.3463 116.257Z" fill="#73829F"/>
<path d="M82.0201 31.8915C82.6514 31.8915 83.1632 31.431 83.1632 30.863C83.1632 30.295 82.6514 29.8345 82.0201 29.8345C81.3888 29.8345 80.877 30.295 80.877 30.863C80.877 31.431 81.3888 31.8915 82.0201 31.8915Z" fill="#73829F"/>
<path d="M62.8364 30.863H74.4857" stroke="#73829F" stroke-width="3" stroke-miterlimit="10" stroke-linecap="round" stroke-linejoin="round"/>
<path d="M90.1634 82.745H55.8777C54.4598 82.745 53.3064 81.5916 53.3064 80.1737V45.8879C53.3064 44.47 54.4598 43.3167 55.8777 43.3167H90.1634C91.5814 43.3167 92.7347 44.47 92.7347 45.8879V80.1737C92.7347 81.5916 91.5814 82.745 90.1634 82.745ZM55.8777 45.0307C55.4052 45.0307 55.0204 45.4154 55.0204 45.8879V80.1737C55.0204 80.6466 55.4052 81.0309 55.8777 81.0309H90.1634C90.6364 81.0309 91.0207 80.6466 91.0207 80.1737V45.8879C91.0207 45.4154 90.6364 45.0307 90.1634 45.0307H55.8777Z" fill="#73829F"/>
<path d="M86.3063 55.102H72.5919C72.1186 55.102 71.7347 54.7181 71.7347 54.2448C71.7347 53.7714 72.1186 53.3875 72.5919 53.3875H86.3063C86.78 53.3875 87.1635 53.7714 87.1635 54.2448C87.1635 54.7185 86.78 55.102 86.3063 55.102ZM86.3063 65.8165H59.7347C59.2614 65.8165 58.8775 65.433 58.8775 64.9593C58.8775 64.4855 59.2614 64.102 59.7347 64.102H86.3063C86.78 64.102 87.1635 64.4855 87.1635 64.9593C87.1635 65.433 86.78 65.8165 86.3063 65.8165ZM86.3063 75.2452H59.7347C59.2614 75.2452 58.8775 74.8617 58.8775 74.3879C58.8775 73.9142 59.2614 73.5307 59.7347 73.5307H86.3063C86.78 73.5307 87.1635 73.9142 87.1635 74.3879C87.1635 74.8617 86.78 75.2452 86.3063 75.2452ZM63.1632 59.3877C60.3274 59.3877 58.0203 57.081 58.0203 54.2448C58.0203 51.4085 60.327 49.1018 63.1632 49.1018C65.9994 49.1018 68.3062 51.4085 68.3062 54.2448C68.3062 57.081 65.9994 59.3877 63.1632 59.3877ZM63.1632 50.8163C61.2728 50.8163 59.7347 52.3543 59.7347 54.2448C59.7347 56.1352 61.2728 57.6733 63.1632 57.6733C65.0536 57.6733 66.5917 56.1352 66.5917 54.2448C66.5917 52.3543 65.054 50.8163 63.1632 50.8163Z" fill="#73829F"/>
<defs>
<linearGradient id="paint0_linear" x1="73" y1="67" x2="73" y2="248" gradientUnits="userSpaceOnUse">
<stop offset="0.25" stop-color="#C4C4C4" stop-opacity="0"/>
<stop offset="0.838542" stop-color="#73829F"/>
</linearGradient>
</defs>
</svg>
