<svg width="145" height="239" viewBox="0 0 145 239" fill="none" xmlns="http://www.w3.org/2000/svg">
<path d="M28 58H118V183H143L73 239L3 183H28V58Z" fill="url(#paint0_linear)"/>
<circle cx="72.5" cy="72.5" r="67.5" fill="#FEFEFE" stroke="#73829F" stroke-width="10"/>
<path d="M71.1003 91.6003C69.1424 93.5583 67.8091 96.0528 67.269 98.7685C66.7288 101.484 67.0061 104.299 68.0658 106.857C69.1254 109.415 70.9198 111.602 73.2221 113.14C75.5244 114.678 78.2311 115.5 81 115.5C83.7689 115.5 86.4756 114.678 88.7779 113.14C91.0802 111.602 92.8746 109.415 93.9343 106.857C94.9939 104.299 95.2712 101.484 94.7311 98.7685C94.1909 96.0528 92.8576 93.5583 90.8998 91.6003C89.6059 90.2893 88.0645 89.2483 86.3651 88.5378C84.6656 87.8273 82.842 87.4614 81 87.4614C79.158 87.4614 77.3344 87.8273 75.635 88.5378C73.9355 89.2483 72.3941 90.2893 71.1003 91.6003ZM88.4253 108.925C86.9567 110.394 85.0858 111.393 83.0491 111.798C81.0123 112.203 78.9012 111.995 76.9827 111.201C75.0642 110.406 73.4244 109.06 72.2707 107.333C71.117 105.607 70.5013 103.577 70.5013 101.5C70.5013 99.4234 71.117 97.3934 72.2707 95.6668C73.4244 93.9401 75.0642 92.5943 76.9827 91.7995C78.9012 91.0047 81.0123 90.7967 83.0491 91.2017C85.0858 91.6067 86.9567 92.6065 88.4253 94.0748C90.3905 96.0463 91.494 98.7164 91.494 101.5C91.494 104.284 90.3905 106.954 88.4253 108.925Z" fill="#73829F"/>
<path d="M86.7627 96.7627L79.25 104.275L76.9872 102.013C76.6572 101.694 76.2151 101.518 75.7563 101.522C75.2974 101.526 74.8585 101.71 74.534 102.034C74.2096 102.359 74.0255 102.797 74.0216 103.256C74.0176 103.715 74.194 104.157 74.5127 104.487L79.25 109.224L89.2372 99.2372C89.556 98.9072 89.7324 98.4651 89.7284 98.0063C89.7244 97.5474 89.5404 97.1085 89.2159 96.784C88.8914 96.4596 88.4525 96.2755 87.9937 96.2716C87.5348 96.2676 87.0928 96.444 86.7627 96.7627Z" fill="#73829F"/>
<path d="M35.5 63H39V105C39 107.785 40.1062 110.455 42.0754 112.425C44.0445 114.394 46.7152 115.5 49.5 115.5C52.2848 115.5 54.9555 114.394 56.9246 112.425C58.8938 110.455 60 107.785 60 105V63H63.5V50.75H35.5V63ZM56.5 94.5H53V75.25H56.5V94.5ZM56.5 71.75H49.5V98H56.5V105C56.5 106.857 55.7625 108.637 54.4497 109.95C53.137 111.263 51.3565 112 49.5 112C47.6435 112 45.863 111.263 44.5503 109.95C43.2375 108.637 42.5 106.857 42.5 105V63H56.5V71.75ZM39 54.25H60V59.5H39V54.25Z" fill="#73829F"/>
<path d="M91.962 51.3153C91.7277 51.57 91.5742 51.8885 91.5209 52.2305C91.4676 52.5725 91.5169 52.9226 91.6626 53.2366C91.8082 53.5505 92.0437 53.8143 92.3393 53.9944C92.6349 54.1745 92.9772 54.2629 93.323 54.2485C93.6688 54.234 94.0026 54.1174 94.2821 53.9132C94.5616 53.7091 94.7743 53.4267 94.8933 53.1017C95.0123 52.7767 95.0323 52.4237 94.9506 52.0873C94.869 51.7509 94.6895 51.4464 94.4347 51.212C94.2656 51.0564 94.0675 50.9357 93.8517 50.8567C93.6359 50.7777 93.4066 50.7419 93.177 50.7515C92.9474 50.7611 92.7219 50.8158 92.5134 50.9126C92.305 51.0093 92.1176 51.1461 91.962 51.3153Z" fill="#73829F"/>
<path d="M85.424 55.3806C84.9554 55.89 84.6484 56.527 84.5418 57.211C84.4352 57.895 84.5338 58.5952 84.8251 59.2232C85.1165 59.8511 85.5875 60.3785 86.1786 60.7387C86.7697 61.099 87.4544 61.2758 88.146 61.247C88.8376 61.2181 89.5052 60.9848 90.0642 60.5765C90.6232 60.1682 91.0486 59.6034 91.2866 58.9534C91.5246 58.3033 91.5645 57.5973 91.4013 56.9246C91.238 56.2519 90.879 55.6427 90.3695 55.1741C90.0312 54.8629 89.635 54.6214 89.2033 54.4634C88.7717 54.3053 88.3132 54.2339 87.854 54.253C87.3948 54.2722 86.9438 54.3817 86.5269 54.5751C86.1099 54.7686 85.7352 55.0423 85.424 55.3806Z" fill="#73829F"/>
<path d="M100.869 58.674C100.36 58.2054 99.7229 57.8984 99.039 57.7918C98.355 57.6852 97.6548 57.7838 97.0269 58.0751C96.3989 58.3665 95.8715 58.8375 95.5113 59.4286C95.151 60.0197 94.9742 60.7044 95.003 61.396C95.0319 62.0876 95.2652 62.7552 95.6735 63.3142C96.0818 63.8732 96.6466 64.2986 97.2967 64.5366C97.9467 64.7746 98.6527 64.8145 99.3254 64.6513C99.9981 64.488 100.607 64.129 101.076 63.6195C101.387 63.2812 101.629 62.885 101.787 62.4533C101.945 62.0217 102.016 61.5632 101.997 61.104C101.978 60.6448 101.868 60.1938 101.675 59.7769C101.481 59.3599 101.208 58.9852 100.869 58.674Z" fill="#73829F"/>
<path d="M91.962 65.3153C91.7277 65.57 91.5742 65.8885 91.5209 66.2305C91.4676 66.5725 91.5169 66.9226 91.6626 67.2366C91.8082 67.5505 92.0437 67.8143 92.3393 67.9944C92.6349 68.1745 92.9772 68.2629 93.323 68.2485C93.6688 68.234 94.0026 68.1174 94.2821 67.9132C94.5616 67.7091 94.7743 67.4267 94.8933 67.1017C95.0123 66.7767 95.0323 66.4237 94.9506 66.0873C94.869 65.7509 94.6895 65.4464 94.4347 65.212C94.2656 65.0564 94.0675 64.9357 93.8517 64.8567C93.6359 64.7777 93.4066 64.7419 93.177 64.7515C92.9474 64.7611 92.7219 64.8158 92.5134 64.9126C92.305 65.0093 92.1176 65.1461 91.962 65.3153Z" fill="#73829F"/>
<path d="M113.177 58.4868C112.953 58.4376 112.721 58.4332 112.494 58.4737C112.268 58.5143 112.052 58.5991 111.858 58.7233C111.665 58.8475 111.497 59.0086 111.366 59.1974C111.235 59.3862 111.142 59.5991 111.093 59.8238L110.719 61.5335L107.18 60.7583C107.24 60.146 107.259 59.5304 107.238 58.9155C107.113 55.8098 105.95 52.8358 103.934 50.47L105.201 49.0928L106.487 50.2758C106.655 50.4386 106.853 50.5662 107.071 50.651C107.289 50.7358 107.522 50.7761 107.755 50.7696C107.989 50.763 108.219 50.7097 108.432 50.6128C108.644 50.5159 108.835 50.3774 108.994 50.2054C109.152 50.0335 109.274 49.8315 109.353 49.6115C109.432 49.3915 109.466 49.1579 109.454 48.9245C109.441 48.6911 109.381 48.4627 109.279 48.2526C109.176 48.0426 109.033 47.8552 108.857 47.7015L106.282 45.3338L103.705 42.9625C103.537 42.7997 103.338 42.6721 103.12 42.5873C102.903 42.5025 102.67 42.4622 102.436 42.4688C102.203 42.4753 101.973 42.5286 101.76 42.6255C101.547 42.7224 101.356 42.8609 101.198 43.0329C101.04 43.2049 100.917 43.4068 100.838 43.6268C100.759 43.8468 100.725 44.0804 100.738 44.3138C100.751 44.5472 100.81 44.7756 100.913 44.9857C101.015 45.1957 101.159 45.3831 101.335 45.5368L102.623 46.7215L101.356 48.1005C98.5693 46.1212 95.1539 45.2316 91.7556 45.5998L90.9191 42.0683L92.6236 41.664C93.0704 41.5526 93.4553 41.2694 93.6948 40.8761C93.9343 40.4827 94.0091 40.0108 93.9029 39.5627C93.7967 39.1145 93.5182 38.7263 93.1277 38.4822C92.7372 38.2381 92.2662 38.1577 91.8169 38.2585L85.0041 39.872C84.5869 39.971 84.2205 40.2197 83.9746 40.5709C83.7286 40.9222 83.6201 41.3515 83.6698 41.7774C83.7194 42.2033 83.9237 42.5962 84.2439 42.8814C84.5641 43.1667 84.9778 43.3244 85.4066 43.3248C85.5427 43.3245 85.6784 43.3087 85.8109 43.2775L87.5154 42.8733L88.3501 46.3995C86.4345 47.108 84.6984 48.2294 83.2648 49.6841C81.8313 51.1389 80.7354 52.8913 80.0551 54.817L76.5289 54.0453L76.9034 52.3373C77.0027 51.8838 76.9178 51.4095 76.6674 51.0186C76.417 50.6277 76.0216 50.3524 75.5681 50.253C75.1147 50.1537 74.6403 50.2386 74.2494 50.489C73.8586 50.7394 73.5832 51.1348 73.4839 51.5883L71.9876 58.4273C71.9384 58.6518 71.9339 58.8838 71.9744 59.1101C72.0148 59.3364 72.0995 59.5525 72.2235 59.746C72.3475 59.9396 72.5084 60.1068 72.697 60.2381C72.8857 60.3695 73.0983 60.4624 73.3229 60.5115C73.4466 60.5378 73.5726 60.5513 73.6991 60.5518C74.0982 60.5514 74.4851 60.4146 74.7958 60.1641C75.1064 59.9136 75.3221 59.5644 75.4071 59.1745L75.7816 57.4648L79.3201 58.24C79.2605 58.8524 79.2412 59.4679 79.2624 60.0828C79.3889 63.1902 80.5555 66.165 82.5751 68.53L81.3081 69.9073L80.0219 68.7243C79.8542 68.5615 79.6556 68.4339 79.4377 68.3491C79.2199 68.2643 78.9873 68.2239 78.7537 68.2305C78.52 68.2371 78.2901 68.2904 78.0774 68.3873C77.8646 68.4841 77.6735 68.6227 77.5152 68.7946C77.3569 68.9666 77.2347 69.1686 77.1557 69.3886C77.0767 69.6086 77.0426 69.8421 77.0554 70.0755C77.0682 70.3089 77.1276 70.5374 77.2301 70.7474C77.3327 70.9575 77.4762 71.1449 77.6524 71.2985L80.2179 73.675L82.7921 76.0428C82.9598 76.2056 83.1584 76.3332 83.3762 76.418C83.594 76.5028 83.8266 76.5431 84.0603 76.5366C84.2939 76.53 84.5239 76.4767 84.7366 76.3798C84.9493 76.2829 85.1405 76.1444 85.2988 75.9724C85.4571 75.8005 85.5793 75.5985 85.6583 75.3785C85.7373 75.1585 85.7714 74.9249 85.7586 74.6915C85.7458 74.4581 85.6864 74.2297 85.5838 74.0196C85.4813 73.8096 85.3377 73.6222 85.1616 73.4685L83.8736 72.2838L85.1424 70.9048C87.9236 72.8965 91.3427 73.7903 94.7429 73.4143L95.5776 76.937L93.8731 77.3413C93.4559 77.4403 93.0895 77.689 92.8436 78.0402C92.5976 78.3914 92.4891 78.8208 92.5388 79.2467C92.5884 79.6726 92.7927 80.0654 93.1129 80.3507C93.4331 80.6359 93.8468 80.7937 94.2756 80.794C94.4117 80.7938 94.5474 80.7779 94.6799 80.7468L101.493 79.1333C101.939 79.0218 102.324 78.7387 102.564 78.3453C102.803 77.952 102.878 77.4801 102.772 77.0319C102.666 76.5838 102.387 76.1956 101.997 75.9514C101.606 75.7073 101.135 75.627 100.686 75.7278L98.9814 76.132L98.1501 72.5935C100.066 71.8875 101.803 70.7676 103.238 69.3136C104.672 67.8596 105.767 66.1072 106.447 64.1813L109.973 64.953L109.599 66.661C109.549 66.8856 109.545 67.1176 109.585 67.3439C109.626 67.5701 109.71 67.7862 109.834 67.9798C109.958 68.1733 110.119 68.3405 110.308 68.4719C110.497 68.6032 110.709 68.6961 110.934 68.7453C111.057 68.7724 111.182 68.7859 111.308 68.7855C111.707 68.7852 112.094 68.6487 112.405 68.3985C112.715 68.1484 112.931 67.7996 113.016 67.41L114.513 60.571C114.562 60.3465 114.566 60.1145 114.526 59.8882C114.485 59.6619 114.401 59.4459 114.277 59.2523C114.153 59.0588 113.992 58.8915 113.803 58.7602C113.615 58.6288 113.402 58.5359 113.177 58.4868ZM86.1416 67.2368C84.613 65.831 83.5357 64.0036 83.0457 61.9855C82.5557 59.9675 82.6752 57.8494 83.3889 55.8993C84.1027 53.9491 85.3787 52.2544 87.0557 51.0294C88.7326 49.8044 90.7351 49.1042 92.81 49.0174C94.8848 48.9305 96.9389 49.4608 98.7123 50.5413C100.486 51.6218 101.899 53.2039 102.773 55.0876C103.648 56.9713 103.944 59.0719 103.624 61.1238C103.305 63.1758 102.384 65.0869 100.978 66.6155C99.0902 68.6611 96.4681 69.8745 93.6868 69.9896C90.9056 70.1048 88.1922 69.1123 86.1416 67.2298V67.2368Z" fill="#73829F"/>
<defs>
<linearGradient id="paint0_linear" x1="73" y1="58" x2="73" y2="239" gradientUnits="userSpaceOnUse">
<stop offset="0.25" stop-color="#C4C4C4" stop-opacity="0"/>
<stop offset="0.838542" stop-color="#73829F"/>
</linearGradient>
</defs>
</svg>
