<svg width="145" height="240" viewBox="0 0 145 240" fill="none" xmlns="http://www.w3.org/2000/svg">
<path d="M28 59H118V184H143L73 240L3 184H28V59Z" fill="url(#paint0_linear)"/>
<circle cx="72.5" cy="72.5" r="67.5" fill="#FEFEFE" stroke="#73829F" stroke-width="10"/>
<path d="M89.0943 49.0437L87.7825 47.7317L82.8579 52.6563L81.0037 50.8027L79.6919 52.1147L82.8579 55.2803L89.0943 49.0437Z" fill="#73829F"/>
<path d="M41.7128 28.7957V116.204H105.287V49.308H103.432V114.349H43.5682V30.6511H103.432V41.5769H105.287V28.7957H41.7128Z" fill="#73829F"/>
<path d="M105.287 44.3501H103.432V46.772H105.287V44.3501Z" fill="#73829F"/>
<path d="M45.2153 99.8686V111.311H93.5648L101.785 103.451V35.6392H82.6236C82.7227 35.097 82.7773 34.5396 82.7773 33.9692V32.4849H64.2226V33.9692C64.2226 34.5396 64.2769 35.097 64.3758 35.6392H45.2153V96.7882H47.0708V37.4946H64.9202C66.3109 40.8666 69.632 43.2466 73.4999 43.2466C77.3678 43.2466 80.6887 40.8666 82.0794 37.4946H99.929V101.972H92.0789V107.106H93.9344V103.828H98.7059L92.8202 109.455H47.0708V99.8686H45.2153ZM73.4999 41.3911C69.5316 41.3911 66.281 38.2611 66.0871 34.3403H80.9123C80.7184 38.2611 77.4678 41.3911 73.4999 41.3911Z" fill="#73829F"/>
<path d="M77.7676 35.6392H69.2324V37.4946H77.7676V35.6392Z" fill="#73829F"/>
<path d="M61.306 56.3379V70.5248H74.6357V68.6693H63.1615V56.3379H61.306Z" fill="#73829F"/>
<path d="M67.3189 50.5307V50.5316H61.3049V53.9061H63.1604V52.3871H67.3189V62.9883H75.9308V52.3871H76.7326C77.0753 54.5659 78.3281 56.4461 80.0886 57.6252V68.6684H77.4395V70.5239H81.944V58.5348C82.7143 58.792 83.5373 58.9332 84.3931 58.9332C88.6694 58.9332 92.1484 55.4542 92.1484 51.1779C92.1484 46.9014 88.6694 43.4224 84.3931 43.4224C80.3344 43.4224 76.9964 46.5568 76.6667 50.5314H75.9307V50.5305H67.3189V50.5307ZM74.0754 61.1326H69.1743V52.3869H74.0754V61.1326ZM84.3931 45.2778C87.6463 45.2778 90.2929 47.9247 90.2929 51.1779C90.2929 54.431 87.6463 57.0777 84.3931 57.0777C81.1399 57.0777 78.4932 54.431 78.4932 51.1779C78.4932 47.9247 81.1399 45.2778 84.3931 45.2778Z" fill="#73829F"/>
<path d="M58.2372 78.7968V76.9413H52.4106V86.6361H62.1055V79.8562L64.3534 77.6081L63.0415 76.2961L58.0218 81.3157L56.4376 79.7317L55.1258 81.0435L58.0218 83.9397L60.25 81.7117V84.7806H54.2661V78.7968H58.2372Z" fill="#73829F"/>
<path d="M52.4106 100.797H62.1055V94.0168L64.3534 91.7687L63.0415 90.4565L58.0218 95.4761L56.4376 93.8921L55.1258 95.2039L58.0218 98.1003L60.25 95.8723V98.941H54.2661V92.9573H58.2372V91.1019H52.4106V100.797Z" fill="#73829F"/>
<path d="M93.0067 81.3787H67.6189V83.2341H93.0067V81.3787Z" fill="#73829F"/>
<path d="M93.0067 78.0308H67.6189V79.8862H93.0067V78.0308Z" fill="#73829F"/>
<path d="M93.0067 94.4495H67.6189V96.3049H93.0067V94.4495Z" fill="#73829F"/>
<path d="M93.0067 91.1018H67.6189V92.9573H93.0067V91.1018Z" fill="#73829F"/>
<defs>
<linearGradient id="paint0_linear" x1="73" y1="59" x2="73" y2="240" gradientUnits="userSpaceOnUse">
<stop offset="0.25" stop-color="#C4C4C4" stop-opacity="0"/>
<stop offset="0.838542" stop-color="#73829F"/>
</linearGradient>
</defs>
</svg>
