<svg width="145" height="145" viewBox="0 0 145 145" fill="none" xmlns="http://www.w3.org/2000/svg">
<circle cx="72.5" cy="72.5" r="67.5" fill="#FEFEFE" stroke="#73829F" stroke-width="10"/>
<path d="M73 32.6399C68.2899 32.6399 63.6848 33.4632 59.3093 35.0868L60.4507 38.1618C64.4589 36.6743 68.6819 35.9199 73 35.9199C92.8949 35.9199 109.08 52.1051 109.08 71.9999C109.08 91.8947 92.8949 108.08 73 108.08C53.1052 108.08 36.92 91.8947 36.92 71.9999C36.92 61.1841 41.7793 51.0161 50.04 44.1888V55.5999H53.32V39.1999H36.92V42.4799H46.9667C38.5485 49.9091 33.64 60.6314 33.64 71.9999C33.64 93.702 51.2979 111.36 73 111.36C94.7021 111.36 112.36 93.702 112.36 71.9999C112.36 50.2978 94.7021 32.6399 73 32.6399Z" fill="#73829F"/>
<path d="M63.16 85.1199H59.88V88.3999H86.12V85.1199H82.84V79.5209L75.319 71.9999L82.84 64.4788V58.8799H86.12V55.5999H59.88V58.8799H63.16V64.4788L70.681 71.9999L63.16 79.5209V85.1199ZM66.44 63.1209V58.8799H79.56V63.1209L73 69.6809L66.44 63.1209ZM73 74.3188L79.56 80.8788V85.1199H66.44V80.8788L73 74.3188Z" fill="#73829F"/>
<path d="M66.44 94.96H63.16V98.24H66.44V94.96Z" fill="#73829F"/>
<path d="M74.64 94.96H71.36V98.24H74.64V94.96Z" fill="#73829F"/>
<path d="M82.8401 94.96H79.5601V98.24H82.8401V94.96Z" fill="#73829F"/>
</svg>
